<?xml version="1.0" standalone="no"?>
<!DOCTYPE svg PUBLIC "-//W3C//DTD SVG 20010904//EN"
 "http://www.w3.org/TR/2001/REC-SVG-20010904/DTD/svg10.dtd">
<svg version="1.0" xmlns="http://www.w3.org/2000/svg"
 width="2048.000000pt" height="2048.000000pt" viewBox="0 0 2048.000000 2048.000000"
 preserveAspectRatio="xMidYMid meet">

<g transform="translate(0.000000,2048.000000) scale(0.100000,-0.100000)"
fill="#000000" stroke="none">
<path d="M10441 17264 c-58 -13 -118 -28 -135 -33 -17 -5 -85 -26 -151 -47
-66 -20 -197 -67 -291 -104 -184 -73 -241 -88 -272 -71 -11 6 -22 7 -26 4 -10
-10 -46 -11 -46 -1 0 4 5 8 10 8 15 0 12 16 -2 18 -7 0 -30 2 -50 3 -24 1 -35
6 -31 13 4 6 -1 5 -10 -3 -23 -18 -85 -20 -92 -2 -4 11 -8 10 -19 -5 -8 -10
-12 -23 -9 -29 3 -5 -2 -3 -12 6 -28 27 -70 7 -219 -107 -45 -34 -109 -79
-186 -130 -273 -183 -692 -589 -920 -894 -39 -52 -85 -113 -101 -134 -19 -26
-29 -34 -29 -22 0 9 -4 15 -9 11 -5 -3 -13 -1 -16 5 -4 6 -1 9 6 8 6 -2 14 3
17 11 3 8 0 11 -7 7 -6 -4 -11 -1 -11 8 0 9 -4 16 -10 16 -5 0 -10 8 -11 18 0
14 -2 14 -9 -3 -8 -18 -9 -18 -10 5 -2 14 -2 28 -1 33 0 4 -3 7 -9 7 -8 0 -8
10 -1 49 1 2 9 -3 19 -10 15 -13 16 -12 4 3 -12 15 -11 22 8 48 12 16 19 30
15 30 -10 0 -187 -276 -259 -403 -330 -584 -536 -1190 -622 -1832 -24 -177
-29 -623 -10 -864 9 -112 15 -206 13 -207 -7 -8 -49 238 -63 375 -14 136 -17
147 -45 178 -16 19 -29 37 -29 41 0 17 -42 52 -61 52 -30 0 -47 -51 -58 -181
-9 -103 -8 -148 3 -286 3 -41 2 -43 -23 -43 -41 0 -124 -53 -146 -94 -11 -20
-22 -36 -26 -36 -9 0 -69 162 -107 285 -65 211 -94 347 -117 547 -17 140 -38
194 -93 232 -74 51 -179 26 -250 -60 l-29 -35 -14 93 c-9 60 -14 201 -15 403
0 171 -4 320 -8 333 -12 38 -34 25 -44 -25 -45 -207 -72 -448 -81 -703 l-8
-215 -1 248 c-2 232 -3 247 -19 239 -10 -5 -32 -8 -50 -7 -18 1 -30 -2 -27 -7
3 -4 -4 -8 -15 -8 -11 0 -25 -8 -30 -17 -8 -14 -11 -15 -11 -3 -1 9 -5 5 -11
-8 -5 -13 -13 -21 -18 -18 -13 8 -19 -55 -27 -269 -13 -373 40 -758 161 -1167
19 -65 35 -122 35 -128 0 -6 -13 -29 -30 -51 l-30 -42 -66 139 c-37 76 -82
184 -101 239 -45 131 -107 385 -138 560 -28 159 -55 221 -125 298 -42 46 -48
49 -69 37 -18 -9 -22 -9 -16 0 5 8 3 11 -6 8 -16 -5 -20 -37 -6 -55 6 -9 6
-13 -2 -13 -10 0 -15 13 -12 33 0 4 -6 7 -14 7 -8 0 -15 6 -15 14 0 8 -6 16
-12 18 -7 3 -3 7 8 10 18 5 21 2 16 -16 -3 -11 -1 -18 3 -13 5 4 10 17 12 29
3 18 0 20 -29 14 -81 -16 -109 -68 -116 -212 -17 -369 151 -970 418 -1504 284
-567 725 -1118 1196 -1493 59 -47 328 -246 351 -261 7 -4 22 -1 34 7 13 9 16
17 10 22 -6 3 -11 3 -11 -1 0 -4 -9 1 -20 11 -10 9 -18 21 -17 25 2 8 -41 45
-106 89 -41 28 -48 30 -54 16 -5 -13 -9 -10 -19 15 -8 17 -18 29 -23 26 -12
-8 -22 34 -12 53 5 9 6 23 4 31 -3 8 2 5 12 -7 16 -22 43 -33 30 -13 -3 6 -2
10 4 10 5 0 13 -4 16 -10 11 -18 24 -11 47 24 13 19 31 37 41 40 9 2 17 8 17
13 0 4 -36 32 -80 61 -89 60 -196 169 -334 342 -147 184 -314 410 -303 410 2
0 35 -42 72 -92 125 -168 239 -310 243 -299 5 14 42 14 42 1 0 -5 -9 -10 -20
-10 -11 0 -20 -3 -20 -6 0 -13 140 -171 210 -238 40 -38 101 -88 137 -113 36
-24 80 -60 99 -78 56 -56 207 -166 220 -161 8 3 11 -1 8 -8 -5 -14 44 -56 66
-56 6 0 31 12 56 26 24 14 44 24 44 21 0 -3 -20 -17 -45 -31 -25 -15 -45 -30
-45 -34 0 -4 19 -20 41 -36 37 -26 42 -27 72 -15 18 7 68 45 112 84 44 39 92
82 108 95 27 23 38 48 15 34 -7 -5 -8 -3 -4 5 5 7 14 10 22 7 7 -3 16 -1 19 4
4 6 1 10 -6 10 -8 0 -8 4 1 15 15 18 7 19 -23 4 -12 -7 -35 -12 -51 -11 -18 0
-46 -10 -66 -24 l-35 -25 35 30 c19 17 28 31 20 31 -8 0 11 12 41 27 l54 28
-30 6 c-23 5 -25 7 -7 8 28 1 28 8 0 40 -22 23 -21 23 14 -3 l37 -28 30 21
c16 12 34 21 40 21 5 0 14 7 19 16 5 9 13 16 18 16 5 0 21 10 35 23 33 27 46
79 27 102 -11 14 -9 14 20 -1 20 -11 40 -14 50 -10 10 4 22 9 27 9 6 1 23 7
38 13 16 7 30 12 32 12 8 0 77 49 112 80 33 30 34 32 17 45 -11 8 -23 15 -28
15 -4 0 -25 14 -47 31 -37 29 -39 30 -66 13 l-28 -16 24 19 c16 14 21 25 16
34 -7 12 -6 12 7 1 11 -9 18 -10 23 -2 3 5 11 10 18 10 8 0 8 -3 -1 -12 -18
-18 -15 -24 22 -47 43 -27 49 -26 35 2 -9 17 -4 14 23 -11 32 -30 36 -32 49
-16 11 13 11 18 2 21 -7 3 -13 9 -13 14 0 6 6 7 13 2 25 -16 37 -9 112 59 58
54 73 73 63 80 -10 7 -9 8 4 4 10 -3 20 -1 23 4 4 6 -3 10 -14 10 -25 0 -38
20 -14 21 16 1 -8 9 -76 26 -14 4 -26 1 -32 -8 -4 -7 -11 -10 -15 -6 -4 3 -1
13 5 21 10 12 6 17 -23 27 -38 14 -51 35 -15 24 44 -14 8 14 -39 30 -26 8 -58
22 -72 31 -25 15 -25 15 9 8 41 -7 35 9 -8 24 -23 8 -31 7 -35 -4 -3 -8 -12
-14 -20 -14 -7 0 -17 -12 -22 -27 -6 -23 -8 -25 -12 -9 -3 15 -10 10 -33 -27
-32 -52 -35 -69 -15 -86 11 -10 16 -5 24 26 19 70 12 9 -8 -72 -19 -78 -20
-79 -15 -24 4 43 1 60 -10 69 -12 10 -18 10 -29 1 -12 -10 -13 -9 -9 7 3 14
-8 34 -33 63 -59 68 -64 80 -9 22 28 -30 53 -53 57 -53 18 0 78 112 78 145 0
35 -14 55 -23 33 -4 -10 -6 -10 -6 0 -1 6 -10 12 -21 12 -39 0 -37 80 2 88 20
4 76 -19 61 -25 -19 -7 -15 -31 7 -43 11 -6 17 -16 14 -25 -9 -23 23 -29 54
-10 27 18 27 18 9 -2 -17 -20 -16 -21 45 -43 35 -12 94 -38 133 -57 118 -60
138 -65 188 -46 l44 16 7 136 c3 75 12 170 20 211 7 41 13 76 12 77 -1 1 -31
-11 -65 -28 -35 -16 -66 -27 -69 -24 -3 2 17 14 43 25 75 32 102 56 109 96 4
19 10 42 13 50 3 10 -2 14 -18 15 l-24 1 25 9 c21 8 31 29 68 142 78 243 231
505 409 702 53 58 98 105 102 105 3 0 31 24 61 51 61 57 29 42 -60 -27 -135
-106 -129 -102 -80 -49 25 26 60 63 79 81 18 18 30 37 27 43 -4 6 -2 11 4 11
7 0 9 7 6 15 -18 46 -19 50 -3 30 19 -24 34 -13 21 15 -9 20 -14 18 -96 -39
-141 -96 -225 -169 -411 -361 -165 -170 -256 -281 -321 -393 -16 -26 -30 -47
-33 -47 -8 0 47 92 101 165 212 293 593 661 789 763 32 16 54 33 48 37 -6 3
-15 3 -21 0 -5 -3 -10 -2 -10 3 0 5 10 14 23 20 12 6 17 11 10 11 -7 1 -10 8
-6 18 4 10 2 14 -4 10 -5 -3 -10 0 -10 8 0 8 4 15 8 15 5 0 6 6 3 14 -6 15
-42 13 -76 -5 -10 -5 -18 -7 -18 -4 0 8 138 75 223 107 45 17 126 43 180 57
54 15 95 30 92 33 -3 3 7 3 22 1 21 -3 24 -2 13 6 -12 8 -9 12 13 20 16 6 37
11 47 11 18 0 61 8 179 33 52 10 53 11 25 19 -16 5 -81 12 -144 15 l-115 7 95
12 c52 6 99 9 103 6 5 -2 3 5 -5 17 -10 16 -23 21 -57 21 -24 0 -41 -3 -38 -7
8 -7 -11 -33 -23 -33 -5 0 -6 9 -3 20 5 18 0 20 -45 20 -35 0 -52 -4 -56 -15
-3 -8 -10 -15 -17 -15 -6 0 -9 7 -5 15 4 11 -2 15 -27 15 -50 0 -76 -10 -70
-26 3 -8 -1 -14 -11 -14 -9 0 -13 6 -10 15 5 12 -3 13 -48 8 -135 -15 -383
-95 -541 -174 -244 -124 -522 -349 -716 -581 -45 -54 -90 -98 -99 -98 -13 0
-13 3 5 13 12 6 57 57 101 112 143 179 338 360 520 482 45 30 82 57 82 60 0 2
-4 1 -10 -2 -5 -3 -10 -4 -10 -1 0 3 28 20 62 37 34 17 67 37 75 44 15 16 18
39 3 30 -5 -3 -10 -1 -10 5 0 6 -5 8 -11 4 -7 -4 -10 -1 -7 7 3 8 12 13 19 11
10 -3 11 0 3 8 -6 6 -26 12 -44 12 -28 1 -31 3 -17 13 9 7 14 15 11 18 -17 17
-281 -150 -429 -271 -44 -36 -71 -55 -60 -43 32 37 210 172 323 245 132 85
214 126 342 171 233 80 430 115 659 115 144 0 190 10 119 25 -27 6 -29 9 -14
17 10 6 26 8 37 5 11 -3 23 2 29 11 8 14 10 15 11 2 1 -8 1 -19 0 -23 -1 -5 3
-6 8 -3 5 3 7 15 4 25 -10 38 -204 75 -403 75 -114 1 -145 11 -42 15 29 1 32
3 22 20 -14 28 -12 36 5 21 8 -7 15 -19 15 -26 0 -11 17 -14 68 -14 82 0 304
-32 421 -60 138 -34 347 -123 446 -190 60 -40 69 -45 61 -32 -4 7 -5 12 -2 12
11 0 95 -57 91 -62 -3 -2 11 -4 30 -4 30 1 34 4 29 21 -7 22 -9 23 -69 59 -22
13 -39 29 -38 34 4 17 -396 222 -433 222 -4 0 -4 -11 -2 -25 3 -15 1 -25 -6
-25 -7 0 -12 12 -12 27 1 23 -6 30 -44 45 l-45 18 45 -6 c116 -16 390 -139
563 -254 102 -67 127 -76 127 -46 0 20 25 37 44 30 22 -8 15 -28 -11 -32 -36
-5 -34 -37 5 -74 20 -18 30 -24 22 -14 -12 16 -9 16 17 -4 18 -13 30 -27 27
-32 -3 -5 -2 -7 3 -6 5 2 28 -16 53 -40 24 -23 50 -40 58 -37 7 2 10 1 7 -5
-3 -5 4 -14 15 -20 26 -14 25 -10 -6 53 -50 100 -96 168 -109 163 -19 -7 -27
5 -14 21 14 17 -42 93 -156 212 -242 252 -528 421 -915 541 -165 51 -177 56
-189 79 -11 19 -9 19 41 -3 29 -13 93 -33 143 -45 132 -33 261 -84 430 -169
138 -70 194 -106 330 -209 27 -21 55 -37 61 -35 7 1 15 -7 19 -18 3 -11 13
-20 21 -20 17 0 96 -69 89 -80 -2 -4 8 -18 23 -31 15 -13 21 -17 15 -9 -7 8
-13 18 -13 23 0 19 33 -19 62 -70 32 -56 49 -74 23 -23 -21 40 -19 43 13 27
29 -14 60 -12 77 5 7 8 5 8 -5 3 -8 -5 -12 -5 -8 0 4 4 3 17 -3 28 -6 10 -7
17 -2 14 9 -6 46 -60 133 -195 52 -82 76 -110 63 -75 -6 16 -5 16 10 4 21 -16
21 -14 3 37 -8 22 -12 42 -10 45 3 2 -3 23 -12 46 -9 23 -14 44 -12 47 6 5
103 -199 133 -279 l21 -57 24 25 c23 25 47 35 35 15 -4 -6 -1 -18 7 -27 12
-15 11 -15 -8 -5 -18 9 -24 8 -35 -4 -16 -19 -21 -47 -8 -38 5 3 7 10 4 15 -4
5 1 9 9 9 8 0 18 -5 22 -12 5 -7 2 -8 -7 -3 -10 6 -11 5 -3 -4 12 -13 44 -5
44 11 0 5 6 6 13 2 7 -5 7 -2 -2 10 -8 9 -10 16 -5 15 22 -4 26 2 9 15 -18 13
-17 14 8 11 19 -2 27 1 27 12 0 12 -7 14 -30 10 -31 -7 -42 6 -14 17 12 5 15
14 11 36 -5 23 -3 28 8 24 30 -12 27 40 -9 124 -19 45 -32 82 -30 82 14 0 126
-287 125 -322 0 -10 4 -18 10 -18 12 0 12 0 -10 121 -36 194 -124 417 -246
624 -55 94 -145 217 -270 369 -35 43 -67 86 -70 96 -7 21 9 65 27 76 10 6 10
5 2 -7 -29 -38 -24 -49 54 -137 155 -175 187 -217 277 -366 93 -154 210 -420
232 -526 l6 -33 18 24 19 24 0 -22 c0 -16 4 -21 15 -17 17 7 21 -11 4 -22 -6
-4 -9 -19 -5 -36 4 -19 2 -27 -5 -22 -7 4 -9 -6 -7 -27 4 -39 21 -45 26 -9 l4
24 14 -24 c13 -24 13 -24 14 -4 0 12 6 24 14 27 28 11 28 137 1 222 -6 18 -5
18 5 3 6 -10 19 -49 29 -88 l17 -70 56 109 c31 59 69 137 83 172 15 35 36 83
47 106 11 23 17 47 13 53 -4 6 -2 9 4 8 7 -2 33 44 59 102 57 126 120 250 127
250 3 0 -11 -32 -31 -72 l-36 -71 24 -19 23 -19 -24 11 c-13 7 -27 8 -31 3
-13 -13 -90 -189 -90 -204 0 -26 50 -122 79 -151 l28 -29 29 30 c17 18 31 26
35 20 4 -7 14 -3 27 11 21 22 21 22 15 1 -6 -24 12 -29 21 -6 3 8 10 15 16 15
6 0 8 -6 4 -12 -5 -9 -2 -9 9 1 9 7 17 23 17 35 0 15 3 17 9 8 6 -10 10 -9 14
7 4 15 0 21 -11 21 -23 1 26 39 49 40 10 0 19 11 22 28 5 21 0 32 -21 50 -21
19 -22 21 -5 13 38 -19 43 -14 43 50 0 42 3 58 11 53 8 -4 9 -27 5 -70 l-6
-63 36 -25 36 -24 49 29 c28 16 53 29 58 29 4 0 16 9 26 20 10 11 21 17 26 14
4 -2 16 7 25 21 9 14 22 25 29 25 21 0 25 28 10 72 -18 55 -13 59 10 8 10 -22
22 -40 26 -40 16 0 20 20 8 42 -11 22 -11 22 7 7 16 -14 25 -15 53 -5 41 13
102 83 83 95 -8 5 0 13 25 25 30 14 34 19 22 30 -8 7 -69 61 -136 120 -67 59
-126 112 -130 119 -4 7 20 -11 52 -40 147 -127 230 -193 244 -193 14 0 71 57
71 71 0 4 9 9 21 11 15 2 29 24 54 80 l33 78 -36 10 c-20 5 -44 10 -52 11 -8
0 -10 3 -5 5 6 2 53 -5 105 -15 52 -11 96 -19 98 -17 1 2 -4 11 -13 20 -15 15
-14 16 12 16 27 1 26 3 -33 58 -53 50 -53 57 1 9 37 -34 76 -50 89 -37 8 8 7
10 -6 5 -11 -4 -18 -2 -18 4 0 6 8 11 18 11 12 0 2 15 -33 49 -27 26 -59 59
-70 72 -20 24 -20 24 10 -1 16 -14 34 -30 40 -36 5 -6 31 -27 56 -48 43 -33
47 -35 52 -17 6 23 -9 38 -78 76 -27 16 -57 35 -67 42 -9 8 -27 16 -40 18 -12
2 -47 13 -77 25 -49 19 -53 20 -41 3 11 -13 8 -13 -10 3 -14 12 -50 30 -80 42
-30 11 -86 32 -125 46 -38 15 -110 38 -160 51 l-90 25 -22 -28 c-57 -68 -136
-194 -127 -200 5 -4 9 -14 9 -22 0 -10 8 -14 23 -12 13 1 31 -3 40 -9 13 -8
11 -9 -13 -4 -30 6 -29 5 15 -35 37 -34 39 -37 9 -16 -39 28 -56 33 -43 13 5
-7 0 -4 -10 8 -19 20 -19 20 -14 -7 3 -15 1 -25 -3 -22 -5 3 -9 12 -9 21 0 9
-3 13 -6 10 -4 -4 -10 -55 -15 -114 l-8 -108 4 122 c2 67 0 125 -4 128 -5 2
-39 -51 -76 -120 -37 -69 -69 -125 -71 -125 -6 0 146 303 160 320 7 8 26 35
43 60 16 25 45 66 63 92 19 26 32 50 29 52 -2 3 -67 18 -144 35 -483 105
-1068 111 -1514 15 -135 -29 -364 -94 -471 -134 -41 -16 -86 -31 -100 -34
l-25 -7 26 15 c90 52 408 153 596 190 261 51 366 60 698 61 335 0 457 -11 770
-71 217 -42 192 -45 254 36 29 39 52 73 50 75 -17 16 -371 87 -549 109 -113
14 -384 35 -485 37 -31 1 -21 4 40 15 108 19 178 38 250 66 l60 23 -55 6 c-30
3 -111 11 -180 19 -69 7 -165 19 -215 26 l-90 13 130 -4 c72 -2 180 -11 240
-19 181 -25 184 -25 195 -11 27 33 -51 100 -155 135 -122 40 -319 70 -507 77
-97 3 -182 9 -188 13 -8 5 -3 22 15 56 24 44 26 57 22 126 -4 65 -2 78 11 83
38 14 208 45 343 62 142 17 198 18 785 9 96 -1 102 0 137 27 49 37 67 75 67
137 0 122 -76 202 -240 255 -67 21 -74 27 -65 54 6 19 14 21 73 21 76 0 292
-23 427 -46 161 -27 330 -73 585 -159 233 -80 300 -97 300 -77 0 14 -295 192
-319 192 -5 0 -12 -6 -14 -12 -3 -8 -6 -6 -6 4 -2 32 -199 118 -460 202 -148
48 -281 79 -466 110 -82 14 -177 30 -210 35 -55 9 -52 10 35 5 163 -9 540 -87
746 -154 51 -17 98 -29 105 -27 8 2 10 2 5 -1 -4 -2 32 -21 80 -42 49 -20 127
-56 174 -80 80 -40 83 -41 57 -14 -27 26 -27 28 -9 35 15 6 18 14 15 33 -3 14
-12 26 -19 26 -8 0 -14 5 -14 10 0 6 7 10 16 10 14 0 14 3 4 15 -7 8 -24 15
-39 15 -23 1 -24 2 -7 11 13 8 25 8 42 0 40 -18 27 -3 -16 19 -28 15 -38 16
-34 6 4 -10 -6 -15 -35 -18 -23 -2 -43 1 -45 7 -3 5 -5 5 -5 -2 -1 -7 -8 -10
-18 -6 -9 4 -14 2 -11 -3 8 -12 -20 -50 -29 -40 -4 4 -1 11 7 17 13 8 13 10 0
19 -8 5 -10 10 -4 10 7 0 14 11 17 25 3 18 -2 30 -17 41 -21 15 -21 15 6 10
14 -2 36 -10 48 -16 12 -6 24 -10 26 -7 9 9 -124 59 -137 52 -7 -5 -10 -4 -6
2 21 33 -423 149 -718 188 -101 13 -123 20 -137 38 -9 12 -27 34 -38 49 -41
54 -228 91 -548 109 -102 6 -218 8 -256 5 -39 -4 -89 -7 -111 -7 -22 0 -94 -8
-160 -20 -66 -11 -133 -20 -148 -19 -19 0 -26 -3 -21 -11 5 -9 -1 -10 -20 -5
-14 3 -26 2 -26 -2 0 -12 -106 -33 -127 -25 -11 4 -14 3 -9 -6 6 -8 1 -10 -17
-6 -36 10 -302 -69 -292 -86 4 -5 -1 -6 -10 -3 -19 8 -105 -24 -105 -38 0 -6
-8 -7 -17 -4 -10 4 -14 4 -10 0 4 -4 0 -12 -8 -18 -15 -11 -204 -430 -235
-521 -9 -27 -21 -50 -26 -51 -5 0 -16 -3 -24 -6 -14 -5 -129 -41 -330 -104
-47 -14 -154 -51 -239 -81 -84 -29 -155 -52 -157 -50 -5 4 200 78 476 170 102
34 184 67 183 72 -2 6 -58 13 -125 17 -167 10 -176 15 -33 18 110 1 118 3 90
15 -40 19 -20 19 41 0 27 -8 51 -15 54 -15 10 1 -46 29 -58 30 -7 0 -82 34
-167 77 l-155 76 -70 -49 c-39 -27 -76 -53 -84 -58 -8 -6 -45 1 -102 18 -153
46 -155 46 -188 29 -38 -19 -118 -75 -296 -207 l-135 -101 35 -6 35 -7 -36 1
c-27 1 -46 -7 -77 -32 -42 -32 -42 -33 -26 -63 14 -26 20 -29 47 -25 l32 5
-27 -11 c-32 -13 -33 -18 -12 -58 8 -17 13 -33 10 -36 -3 -3 -13 13 -22 36 -9
22 -23 41 -31 41 -8 0 -31 -16 -50 -35 -21 -21 -32 -27 -28 -16 5 15 -12 11
-101 -24 -58 -24 -115 -46 -127 -49 -18 -4 -12 -11 41 -46 35 -22 67 -40 72
-40 6 0 10 -5 10 -11 0 -11 -12 -5 -90 48 -60 40 -65 35 -76 -78 -5 -48 -10
-67 -14 -54 -4 11 -5 26 -2 34 3 8 1 12 -5 8 -5 -3 -2 17 7 46 10 29 16 54 15
55 -4 4 -51 -47 -125 -135 -28 -35 -54 -63 -57 -63 -3 0 16 26 43 58 27 31 68
80 91 108 24 28 43 55 43 60 1 17 384 400 515 515 213 187 218 191 250 179 39
-15 60 -5 84 40 l21 40 -40 -26 c-22 -15 -38 -30 -35 -34 3 -4 -7 -7 -21 -7
-30 0 -31 -2 66 66 41 30 80 58 85 65 6 6 45 28 88 49 43 20 133 69 200 109
190 111 181 108 437 149 117 18 205 37 185 38 -56 4 368 164 568 215 33 8 62
17 65 20 10 11 -33 5 -137 -20z m1257 -461 c-10 -2 -26 -2 -35 0 -10 3 -2 5
17 5 19 0 27 -2 18 -5z m175 -10 c-7 -2 -21 -2 -30 0 -10 3 -4 5 12 5 17 0 24
-2 18 -5z m1068 -162 c-6 -41 -7 -43 -21 -26 -12 15 -12 17 -1 10 11 -6 13 -3
9 12 -5 18 9 60 17 51 1 -2 0 -23 -4 -47z m143 -26 c3 -9 0 -15 -10 -15 -9 0
-12 5 -8 12 5 8 2 9 -9 5 -10 -3 -17 -2 -17 3 0 16 37 11 44 -5z m-3673 -211
c6 -3 43 -10 82 -14 l72 -9 -65 4 c-91 5 -220 21 -226 28 -8 8 124 -1 137 -9z
m-281 -74 c-63 -44 -148 -105 -188 -136 -66 -52 -71 -58 -55 -70 16 -13 15
-14 -10 -8 -26 6 -38 -3 -137 -103 -90 -91 -108 -114 -104 -134 3 -19 3 -20
-4 -6 -7 16 -16 10 -69 -47 -217 -231 -400 -481 -565 -771 -127 -223 -191
-358 -260 -550 -15 -44 -26 -66 -22 -50 20 103 152 402 266 600 211 370 416
635 728 943 92 91 130 136 122 141 -7 4 -31 8 -54 9 -23 1 -44 5 -47 8 -3 4
25 4 63 1 68 -6 71 -6 110 26 23 18 85 64 139 102 53 37 97 70 97 72 0 2 -10
1 -22 -2 -16 -5 -20 -4 -13 3 6 6 22 13 37 16 15 2 38 12 50 20 12 9 29 16 37
16 8 0 -36 -36 -99 -80z m-165 40 c3 -5 1 -10 -4 -10 -6 0 -11 5 -11 10 0 6 2
10 4 10 3 0 8 -4 11 -10z m99 -27 c-17 -16 -114 -56 -114 -47 0 2 18 13 40 24
22 11 40 25 40 30 0 6 12 10 27 10 26 0 26 0 7 -17z m161 -23 c-11 -5 -36 -8
-55 -8 l-35 1 35 7 c19 4 44 8 55 8 l20 1 -20 -9z m92 -35 c-32 -37 -37 -40
-37 -26 0 10 50 61 61 61 4 0 -7 -16 -24 -35z m266 28 c-7 -2 -19 -2 -25 0 -7
3 -2 5 12 5 14 0 19 -2 13 -5z m102 -13 c-44 -10 -115 -30 -158 -44 -43 -14
-85 -26 -95 -26 -29 1 173 65 263 84 65 13 56 1 -10 -14z m-515 -23 c0 -2 -19
-21 -42 -42 l-43 -40 40 43 c36 39 45 47 45 39z m131 -88 c-47 -16 -86 -27
-88 -25 -5 5 137 54 157 54 8 0 -23 -13 -69 -29z m-516 -79 c-63 -17 -201 -57
-220 -64 l-20 -8 20 13 c28 18 195 68 225 67 23 0 22 -1 -5 -8z m157 -12 c-9
-9 -15 -9 -24 0 -9 9 -7 12 12 12 19 0 21 -3 12 -12z m3 -37 c-3 -6 -11 -11
-17 -11 -6 0 -6 6 2 15 14 17 26 13 15 -4z m135 -1 c-8 -5 -24 -9 -35 -9 -16
1 -16 2 5 9 35 11 48 11 30 0z m-110 -74 c0 -16 -18 -31 -27 -22 -8 8 5 36 17
36 5 0 10 -6 10 -14z m-659 -223 c13 -16 12 -17 -3 -4 -17 13 -22 21 -14 21 2
0 10 -8 17 -17z m409 -5 c0 -16 -3 -19 -11 -11 -6 6 -8 16 -5 22 11 17 16 13
16 -11z m-546 -73 c-14 -19 -29 -35 -31 -35 -5 0 7 18 36 53 26 31 23 18 -5
-18z m76 31 c0 -3 -4 -8 -10 -11 -5 -3 -10 -1 -10 4 0 6 5 11 10 11 6 0 10 -2
10 -4z m-153 -73 c-3 -10 -5 -4 -5 12 0 17 2 24 5 18 2 -7 2 -21 0 -30z m3186
30 c-35 -2 -91 -2 -125 0 -35 2 -7 3 62 3 69 0 97 -1 63 -3z m-215 -10 c-15
-2 -42 -2 -60 0 -18 2 -6 4 27 4 33 0 48 -2 33 -4z m-2588 -24 c0 -11 -4 -18
-10 -14 -5 3 -7 12 -3 20 7 21 13 19 13 -6z m2473 14 c-13 -2 -33 -2 -45 0
-13 2 -3 4 22 4 25 0 35 -2 23 -4z m-98 -10 c-353 -49 -775 -216 -1115 -444
-140 -93 -247 -182 -389 -322 -109 -107 -121 -116 -61 -49 292 329 811 645
1250 761 134 36 260 59 310 59 33 -1 33 -1 5 -5z m-2995 -77 c0 -2 -8 -10 -17
-17 -16 -13 -17 -12 -4 4 13 16 21 21 21 13z m220 -136 c0 -5 -7 -10 -15 -10
-8 0 -15 5 -15 10 0 6 7 10 15 10 8 0 15 -4 15 -10z m140 -176 c0 -8 -7 -14
-15 -14 -17 0 -18 2 -9 24 7 18 24 12 24 -10z m-268 -39 c3 -16 1 -25 -7 -25
-8 0 -10 9 -7 25 2 14 6 25 7 25 1 0 5 -11 7 -25z m4097 -17 c-11 -20 -12 -20
-21 -3 -8 12 -7 20 3 26 20 12 30 0 18 -23z m-4504 -50 c-7 -18 -27 -60 -43
-93 -16 -33 -42 -91 -57 -130 -14 -38 -37 -98 -50 -131 -75 -193 -166 -526
-219 -799 -73 -378 -85 -846 -30 -1225 69 -484 196 -849 440 -1270 18 -31 19
-37 5 -20 -11 14 -48 73 -82 133 -38 66 -68 107 -78 107 -12 0 -13 2 -3 9 11
7 9 19 -12 60 -41 80 -110 254 -155 389 -80 240 -135 501 -162 772 -20 185
-17 581 4 775 52 464 197 957 401 1363 45 91 68 123 41 60z m5102 -300 c-2
-13 -4 -3 -4 22 0 25 2 35 4 23 2 -13 2 -33 0 -45z m-2572 42 c-6 -10 -121
-70 -135 -70 -5 0 -50 -25 -100 -56 -51 -30 -94 -53 -97 -50 -7 7 67 52 204
123 126 65 138 70 128 53z m2800 -90 c10 -11 16 -20 13 -20 -3 0 -13 9 -23 20
-10 11 -16 20 -13 20 3 0 13 -9 23 -20z m-602 -27 c-7 -2 -19 -2 -25 0 -7 3
-2 5 12 5 14 0 19 -2 13 -5z m642 -13 c3 -5 1 -10 -4 -10 -6 0 -11 5 -11 10 0
6 2 10 4 10 3 0 8 -4 11 -10z m-3695 -23 c0 -2 -15 -16 -32 -33 l-33 -29 29
33 c28 30 36 37 36 29z m1898 -25 c2 -7 -3 -12 -12 -12 -9 0 -16 7 -16 16 0
17 22 14 28 -4z m1489 -38 c-3 -3 -12 -4 -19 -1 -8 3 -5 6 6 6 11 1 17 -2 13
-5z m-3447 -8 c0 -2 -8 -10 -17 -17 -16 -13 -17 -12 -4 4 13 16 21 21 21 13z
m3267 -69 c4 -6 -14 6 -40 27 -26 21 -47 40 -47 43 0 7 78 -56 87 -70z m240
57 c-3 -3 -12 -4 -19 -1 -8 3 -5 6 6 6 11 1 17 -2 13 -5z m-1227 -25 c0 -5 -7
-9 -15 -9 -15 0 -20 12 -9 23 8 8 24 -1 24 -14z m1210 -21 c0 -16 -3 -19 -11
-11 -6 6 -8 16 -5 22 11 17 16 13 16 -11z m157 16 c-3 -3 -12 -4 -19 -1 -8 3
-5 6 6 6 11 1 17 -2 13 -5z m-3687 -8 c0 -2 -8 -10 -17 -17 -16 -13 -17 -12
-4 4 13 16 21 21 21 13z m3450 -42 c0 -2 -13 2 -30 11 -16 9 -30 18 -30 21 0
2 14 -2 30 -11 17 -9 30 -18 30 -21z m-1710 1 c0 -9 -6 -12 -15 -9 -8 4 -12
10 -9 15 8 14 24 10 24 -6z m717 -7 c-3 -8 -6 -5 -6 6 -1 11 2 17 5 13 3 -3 4
-12 1 -19z m-2507 -18 c-12 -16 -24 -30 -26 -30 -3 0 4 14 16 30 12 17 24 30
26 30 3 0 -4 -13 -16 -30z m3740 5 c7 -8 8 -15 2 -15 -5 0 -15 7 -22 15 -7 8
-8 15 -2 15 5 0 15 -7 22 -15z m-867 -65 c-6 -22 -43 -48 -43 -31 0 20 12 41
21 35 5 -3 9 0 9 5 0 6 4 11 9 11 5 0 7 -9 4 -20z m902 -20 c3 -5 1 -10 -4
-10 -6 0 -11 5 -11 10 0 6 2 10 4 10 3 0 8 -4 11 -10z m-845 -60 c-17 -33 -33
-60 -35 -60 -3 0 8 27 25 60 17 33 33 60 35 60 3 0 -8 -27 -25 -60z m187 -162
c-2 -24 -4 -7 -4 37 0 44 2 63 4 43 2 -21 2 -57 0 -80z m-1729 60 c-3 -7 -15
-14 -29 -16 -23 -2 -23 -2 -5 13 24 18 39 20 34 3z m43 -5 c13 -17 13 -17 -6
-3 -11 8 -22 16 -24 17 -2 2 0 3 6 3 6 0 17 -8 24 -17z m1654 7 c-3 -5 -11
-10 -16 -10 -6 0 -7 5 -4 10 3 6 11 10 16 10 6 0 7 -4 4 -10z m169 -6 c27 -10
20 -44 -9 -44 -31 0 -54 36 -27 43 9 3 18 5 19 6 1 0 8 -2 17 -5z m-1783 -31
c13 -16 12 -17 -3 -4 -17 13 -22 21 -14 21 2 0 10 -8 17 -17z m966 -17 c-12
-14 -24 -23 -26 -20 -5 5 30 44 40 44 4 0 -2 -11 -14 -24z m-1160 -12 c-3 -3
-12 -4 -19 -1 -8 3 -5 6 6 6 11 1 17 -2 13 -5z m1463 -2 c0 -13 -12 -22 -22
-16 -10 6 -1 24 13 24 5 0 9 -4 9 -8z m-316 -82 c10 -7 26 -27 38 -44 20 -29
18 -28 -19 7 -51 48 -80 47 -105 -3 -10 -19 -18 -29 -18 -22 0 20 28 70 42 75
20 8 44 3 62 -13z m-551 -8 c16 -18 15 -18 -13 -14 -31 4 -39 17 -17 25 6 3
12 6 13 6 0 1 8 -7 17 -17z m1057 -28 c0 -2 -13 2 -30 11 -16 9 -30 18 -30 21
0 2 14 -2 30 -11 17 -9 30 -18 30 -21z m-1395 -6 c-10 -47 -25 -70 -21 -33 2
17 4 38 5 48 0 9 6 17 12 17 7 0 8 -12 4 -32z m1465 -34 c0 -2 -9 0 -20 6 -11
6 -20 13 -20 16 0 2 9 0 20 -6 11 -6 20 -13 20 -16z m-2170 -8 c0 -3 -4 -8
-10 -11 -5 -3 -10 -1 -10 4 0 6 5 11 10 11 6 0 10 -2 10 -4z m1498 -35 c9 -25
8 -29 -4 -24 -8 3 -14 16 -14 29 0 32 6 30 18 -5z m-638 -2 c0 -13 -18 -20
-25 -9 -3 5 -12 10 -18 10 -8 0 -8 -3 2 -9 9 -6 10 -11 2 -15 -6 -4 -14 0 -18
9 -3 10 0 21 7 25 14 9 50 1 50 -11z m660 -61 c0 -17 -3 -20 -9 -9 -5 8 -16
11 -26 7 -15 -5 -16 -4 -5 9 18 22 40 18 40 -7z m-295 -56 c-3 -4 -10 0 -15 8
-5 8 -15 15 -22 15 -7 0 -14 11 -14 24 -1 24 -1 24 28 -8 16 -18 27 -36 23
-39z m-1427 -19 c-10 -2 -26 -2 -35 0 -10 3 -2 5 17 5 19 0 27 -2 18 -5z m942
3 c0 -3 -4 -8 -10 -11 -5 -3 -10 -1 -10 4 0 6 5 11 10 11 6 0 10 -2 10 -4z
m511 -28 c8 -15 8 -18 0 -14 -6 4 -16 16 -22 28 -8 15 -8 18 0 14 6 -4 16 -16
22 -28z m869 22 c0 -5 -8 -10 -17 -10 -15 0 -16 2 -3 10 19 12 20 12 20 0z
m-2257 -7 c-7 -2 -21 -2 -30 0 -10 3 -4 5 12 5 17 0 24 -2 18 -5z m657 -14 c0
-15 -22 -21 -31 -8 -14 22 -11 28 11 22 11 -3 20 -9 20 -14z m-603 5 c-3 -3
-12 -4 -19 -1 -8 3 -5 6 6 6 11 1 17 -2 13 -5z m303 1 c0 -2 -10 -10 -22 -16
-21 -11 -22 -11 -9 4 13 16 31 23 31 12z m1820 -8 c0 -8 -11 -19 -25 -25 -31
-14 -33 0 -2 21 28 20 27 20 27 4z m-2073 -3 c-3 -3 -12 -4 -19 -1 -8 3 -5 6
6 6 11 1 17 -2 13 -5z m90 -20 c-3 -3 -12 -4 -19 -1 -8 3 -5 6 6 6 11 1 17 -2
13 -5z m1537 -84 c5 -20 3 -19 -8 5 -7 17 -16 41 -20 55 -5 20 -3 19 8 -5 7
-16 16 -41 20 -55z m173 57 c-2 -6 -7 -12 -13 -14 -15 -4 -37 14 -30 25 8 13
48 3 43 -11z m-467 -27 c6 -11 8 -20 6 -20 -3 0 -10 9 -16 20 -6 11 -8 20 -6
20 3 0 10 -9 16 -20z m-800 -9 c0 -12 -20 -25 -27 -18 -7 7 6 27 18 27 5 0 9
-4 9 -9z m210 -11 c0 -5 -7 -10 -15 -10 -8 0 -15 5 -15 10 0 6 7 10 15 10 8 0
15 -4 15 -10z m635 -60 c9 -16 13 -30 11 -30 -3 0 -12 14 -21 30 -9 17 -13 30
-11 30 3 0 12 -13 21 -30z m363 -32 c2 -9 -5 -19 -17 -23 -30 -9 -43 2 -30 26
12 23 42 21 47 -3z m-2748 -117 c0 -5 -7 -17 -16 -26 -13 -13 -19 -14 -25 -4
-4 8 -3 19 3 26 12 15 38 17 38 4z m1935 -52 c12 -19 -5 -23 -22 -6 -16 16
-16 17 -1 17 9 0 20 -5 23 -11z m493 -24 c-3 -3 -9 2 -12 12 -6 14 -5 15 5 6
7 -7 10 -15 7 -18z m-518 5 c0 -5 -4 -10 -9 -10 -6 0 -13 5 -16 10 -3 6 1 10
9 10 9 0 16 -4 16 -10z m-950 -60 c0 -5 -2 -10 -4 -10 -3 0 -8 5 -11 10 -3 6
-1 10 4 10 6 0 11 -4 11 -10z m-181 -44 c-2 -2 -24 -6 -49 -9 -30 -4 -38 -3
-25 3 19 8 83 14 74 6z m218 -22 c-3 -3 -12 -4 -19 -1 -8 3 -5 6 6 6 11 1 17
-2 13 -5z m-1092 -94 c-3 -5 -11 -10 -16 -10 -6 0 -7 5 -4 10 3 6 11 10 16 10
6 0 7 -4 4 -10z m-1960 -169 c9 -79 14 -151 13 -160 -3 -14 -15 72 -34 259 -3
30 -3 52 0 49 3 -3 13 -70 21 -148z m2330 119 c-3 -5 -11 -10 -16 -10 -6 0 -7
5 -4 10 3 6 11 10 16 10 6 0 7 -4 4 -10z m-30 -73 c-138 -73 -244 -140 -334
-210 -59 -46 -70 -53 -36 -21 28 25 89 72 137 105 88 60 284 169 303 169 6 -1
-26 -20 -70 -43z m-5 -121 c0 -3 -4 -8 -10 -11 -5 -3 -10 -1 -10 4 0 6 5 11
10 11 6 0 10 -2 10 -4z m-38 -32 c-5 -28 -20 -40 -33 -27 -8 8 -8 17 1 33 13
25 36 21 32 -6z m-2235 -116 c-3 -7 -5 -2 -5 12 0 14 2 19 5 13 2 -7 2 -19 0
-25z m1819 -5 c8 -18 13 -20 25 -10 7 7 6 3 -3 -8 -9 -11 -18 -24 -20 -30 -2
-5 -9 -10 -16 -12 -8 -1 -23 -10 -35 -20 -16 -13 -18 -14 -9 -2 10 14 9 17 -7
22 -11 2 -25 0 -31 -7 -13 -12 25 60 43 82 14 18 39 11 53 -15z m119 -33 c3
-5 1 -10 -4 -10 -6 0 -11 5 -11 10 0 6 2 10 4 10 3 0 8 -4 11 -10z m-215 -93
c0 -2 -15 -16 -32 -33 l-33 -29 29 33 c28 30 36 37 36 29z m-70 -80 c0 -2 -12
-14 -27 -28 l-28 -24 24 28 c23 25 31 32 31 24z m-216 -74 c-9 -7 -21 -10 -25
-7 -17 10 -9 19 16 19 22 0 23 -1 9 -12z m156 1 c-7 -8 -33 -52 -56 -97 -50
-94 -60 -98 -13 -4 33 65 67 117 76 117 3 0 0 -7 -7 -16z m470 -44 c-12 -16
-28 -30 -36 -30 -23 0 -16 20 10 30 13 5 27 14 31 19 3 6 8 11 11 11 3 0 -4
-13 -16 -30z m-420 -10 c0 -5 -5 -10 -11 -10 -5 0 -7 5 -4 10 3 6 8 10 11 10
2 0 4 -4 4 -10z m322 -92 c-6 -6 -15 -8 -19 -4 -4 4 -1 11 7 16 19 12 27 3 12
-12z m-481 -61 c-10 -9 -11 -8 -5 6 3 10 9 15 12 12 3 -3 0 -11 -7 -18z m288
-240 c0 -8 -2 -7 -6 1 -6 16 -20 -3 -83 -108 -49 -82 -78 -119 -48 -60 67 129
141 218 137 167z m-213 -188 c3 -6 -5 -22 -19 -36 l-25 -25 12 36 c11 37 20
44 32 25z m-78 -17 c-10 -2 -18 -8 -18 -14 0 -6 -6 -6 -15 2 -8 7 -22 10 -30
6 -8 -3 -15 0 -15 7 0 8 14 11 48 8 26 -3 39 -6 30 -9z m-1698 -12 c0 -11 -7
-20 -15 -20 -13 0 -14 4 -5 20 6 11 13 20 15 20 3 0 5 -9 5 -20z m1824 -12
c-32 -55 -97 -147 -111 -160 -19 -16 -53 -31 -53 -23 0 2 13 11 28 19 16 8 52
51 82 95 29 45 54 81 57 81 2 0 1 -6 -3 -12z m-150 -62 c-24 -18 -29 -14 -12
13 8 13 16 17 22 11 6 -6 3 -15 -10 -24z m38 12 c-7 -7 -12 -8 -12 -2 0 14 12
26 19 19 2 -3 -1 -11 -7 -17z m-103 -95 c2 -1 -6 -1 -18 0 -11 1 -21 8 -21 15
0 12 3 12 18 1 9 -7 19 -14 21 -16z m-366 10 c-7 -2 -21 -2 -30 0 -10 3 -4 5
12 5 17 0 24 -2 18 -5z m-70 -10 c-13 -2 -33 -2 -45 0 -13 2 -3 4 22 4 25 0
35 -2 23 -4z m-243 -37 c0 -2 -9 -6 -20 -9 -11 -3 -18 -1 -14 4 5 9 34 13 34
5z m850 -26 c0 -5 -4 -10 -10 -10 -5 0 -10 5 -10 10 0 6 5 10 10 10 6 0 10 -4
10 -10z m-206 -8 c3 -5 -1 -9 -9 -9 -8 0 -15 4 -15 9 0 4 4 8 9 8 6 0 12 -4
15 -8z m-341 -37 c-6 -17 -25 -15 -31 3 -2 7 5 12 17 12 14 0 19 -5 14 -15z
m387 -15 c-8 -5 -19 -10 -25 -10 -5 0 -3 5 5 10 8 5 20 10 25 10 6 0 3 -5 -5
-10z m-50 -20 c-8 -5 -19 -10 -25 -10 -5 0 -3 5 5 10 8 5 20 10 25 10 6 0 3
-5 -5 -10z m245 0 c-27 -12 -43 -12 -25 0 8 5 22 9 30 9 10 0 8 -3 -5 -9z
m-65 -9 c0 -12 -20 -25 -27 -18 -7 7 6 27 18 27 5 0 9 -4 9 -9z m-2305 -111
c9 -16 13 -30 11 -30 -3 0 -12 14 -21 30 -9 17 -13 30 -11 30 3 0 12 -13 21
-30z m2165 -34 c0 -2 -8 -10 -17 -17 -16 -13 -17 -12 -4 4 13 16 21 21 21 13z
m160 -86 c-8 -5 -19 -10 -25 -10 -5 0 -3 5 5 10 8 5 20 10 25 10 6 0 3 -5 -5
-10z m-640 -4 c0 -2 -8 -10 -17 -17 -16 -13 -17 -12 -4 4 13 16 21 21 21 13z
m-1800 -37 c0 -5 -4 -9 -10 -9 -5 0 -10 7 -10 16 0 8 5 12 10 9 6 -3 10 -10
10 -16z m1460 16 c0 -2 -10 -9 -22 -15 -22 -11 -22 -10 -4 4 21 17 26 19 26
11z m245 -60 c-27 -25 -54 -45 -60 -44 -5 0 8 14 29 32 22 18 45 37 50 44 6 7
16 12 21 12 6 0 -12 -20 -40 -44z m519 19 c9 -23 8 -24 -18 -24 -32 0 -42 16
-19 29 25 14 30 13 37 -5z m-604 -87 c0 -2 -17 -19 -37 -38 l-38 -34 34 38
c33 34 41 42 41 34z m-1247 -34 c-3 -7 0 -13 6 -13 6 0 11 -7 11 -15 0 -20
-10 -19 -26 3 -17 22 -17 39 0 39 8 0 12 -6 9 -14z m717 -19 c0 -16 -45 -19
-55 -5 -3 5 2 17 11 26 12 12 19 13 30 4 8 -6 14 -18 14 -25z m430 -37 c0 -2
-10 -12 -22 -23 l-23 -19 19 23 c18 21 26 27 26 19z m291 -15 c-5 -10 -18 -25
-27 -33 -11 -9 -9 -2 6 19 26 35 36 42 21 14z m394 -12 c3 -6 -1 -7 -9 -4 -18
7 -21 14 -7 14 6 0 13 -4 16 -10z m-1397 -22 c16 -16 15 -35 -3 -42 -20 -7
-45 3 -45 18 0 13 20 36 30 36 3 0 11 -5 18 -12z m715 -11 c4 -10 -2 -13 -19
-9 -13 2 -21 8 -18 13 8 14 31 11 37 -4z m-1186 -8 c16 -16 5 -39 -17 -39 -23
0 -34 16 -26 35 6 18 28 19 43 4z m633 -19 c0 -5 -2 -10 -4 -10 -3 0 -8 5 -11
10 -3 6 -1 10 4 10 6 0 11 -4 11 -10z m1119 -76 c25 6 25 5 7 -9 -16 -12 -17
-17 -6 -32 6 -10 -15 11 -49 47 -34 35 -61 69 -61 74 0 5 19 -12 41 -38 35
-40 46 -46 68 -42z m1 32 c0 -8 -4 -18 -10 -21 -5 -3 -10 3 -10 14 0 12 5 21
10 21 6 0 10 -6 10 -14z m-399 -29 l-23 -22 17 28 c10 15 20 25 23 22 3 -3 -5
-16 -17 -28z m505 9 c0 -12 4 -30 8 -41 4 -11 -2 -4 -13 15 -24 42 -25 47 -8
47 6 0 12 -10 13 -21z m-918 -67 l-78 -71 0 -181 c0 -99 -2 -178 -5 -176 -2 3
-5 78 -5 167 -1 89 -5 162 -8 162 -3 0 -20 -12 -36 -27 -20 -19 -17 -13 9 17
41 46 186 180 195 180 3 0 -30 -32 -72 -71z m-1118 41 c0 -5 -4 -10 -10 -10
-5 0 -10 5 -10 10 0 6 5 10 10 10 6 0 10 -4 10 -10z m707 -107 c-3 -3 -11 -2
-17 2 -8 5 -7 11 2 22 12 15 13 14 16 -1 2 -10 1 -20 -1 -23z m523 11 c0 -16
-26 -19 -35 -4 -3 6 -4 14 0 20 8 13 35 1 35 -16z m570 22 c0 -2 -8 -10 -17
-17 -16 -13 -17 -12 -4 4 13 16 21 21 21 13z m-160 -43 c0 -13 -3 -13 -15 -3
-8 7 -15 19 -15 27 0 13 3 13 15 3 8 -7 15 -19 15 -27z m109 4 c-2 -1 -15 -11
-29 -22 l-25 -20 19 23 c11 12 24 22 29 22 6 0 8 -1 6 -3z m-91 -71 c-36 -31
-36 -33 -18 -46 30 -22 24 -29 -16 -18 -20 5 -43 7 -52 3 -24 -9 -5 9 59 56
66 47 77 49 27 5z m-708 -10 c0 -2 -8 -10 -17 -17 -16 -13 -17 -12 -4 4 13 16
21 21 21 13z m466 -34 c-9 -9 -37 8 -31 18 5 8 11 7 21 -1 8 -6 12 -14 10 -17z
m247 13 c-3 -9 -8 -14 -10 -11 -3 3 -2 9 2 15 9 16 15 13 8 -4z m-43 -140 c0
-8 -62 -65 -71 -65 -5 0 -9 4 -9 9 0 11 25 32 32 26 3 -3 13 4 23 15 18 20 25
24 25 15z m-251 -36 c-13 -10 -26 -16 -28 -13 -7 7 33 42 43 36 5 -3 -2 -13
-15 -23z m-979 11 c0 -5 -7 -10 -15 -10 -8 0 -15 5 -15 10 0 6 7 10 15 10 8 0
15 -4 15 -10z m443 -6 c9 -10 -4 -34 -19 -34 -8 0 -14 9 -14 20 0 19 19 27 33
14z m418 -17 c-10 -9 -11 -8 -5 6 3 10 9 15 12 12 3 -3 0 -11 -7 -18z m-508
-60 c30 -24 18 -27 -17 -4 -18 12 -39 30 -46 41 -12 19 -1 13 63 -37z m104 13
c1 -11 -2 -20 -8 -20 -5 0 -9 9 -9 20 0 11 4 20 8 20 4 0 8 -9 9 -20z m353
-30 c-12 -16 -24 -30 -26 -30 -7 0 5 20 24 43 24 27 25 20 2 -13z m183 3 c-7
-2 -19 -2 -25 0 -7 3 -2 5 12 5 14 0 19 -2 13 -5z m-813 -64 c-7 -11 -14 -18
-17 -15 -3 3 0 12 7 21 18 21 23 19 10 -6z m580 -9 c-12 -16 -24 -30 -26 -30
-3 0 4 14 16 30 12 17 24 30 26 30 3 0 -4 -13 -16 -30z m280 -24 c0 -2 -7 -7
-16 -10 -8 -3 -12 -2 -9 4 6 10 25 14 25 6z m-319 -34 c-5 -10 -18 -25 -27
-33 -11 -9 -9 -2 6 19 26 35 36 42 21 14z m279 14 c0 -3 -15 -14 -32 -26 l-33
-22 30 26 c31 27 35 29 35 22z m-55 -16 c-3 -5 -20 -19 -38 -30 -32 -22 -32
-22 3 9 37 32 45 37 35 21z m-625 -100 c0 -5 -5 -10 -11 -10 -5 0 -7 5 -4 10
3 6 8 10 11 10 2 0 4 -4 4 -10z"/>
<path d="M9828 16993 c7 -3 16 -2 19 1 4 3 -2 6 -13 5 -11 0 -14 -3 -6 -6z"/>
<path d="M9665 16980 c-19 -5 -6 -6 35 -3 36 3 67 7 69 9 8 7 -73 2 -104 -6z"/>
<path d="M9608 16963 c7 -3 16 -2 19 1 4 3 -2 6 -13 5 -11 0 -14 -3 -6 -6z"/>
<path d="M9768 16963 c7 -3 16 -2 19 1 4 3 -2 6 -13 5 -11 0 -14 -3 -6 -6z"/>
<path d="M9718 16953 c7 -3 16 -2 19 1 4 3 -2 6 -13 5 -11 0 -14 -3 -6 -6z"/>
<path d="M9605 16945 c-5 -2 -22 -6 -37 -9 -16 -4 -28 -11 -28 -16 0 -7 6 -7
18 -1 9 5 46 14 82 19 58 8 60 9 20 10 -25 0 -49 -1 -55 -3z"/>
<path d="M9450 16888 c-30 -28 -98 -78 -150 -112 -125 -82 -129 -84 -106 -58
26 30 16 28 -40 -7 l-46 -30 41 -20 c22 -12 45 -21 50 -21 6 0 48 24 93 54 46
29 122 74 171 100 48 26 87 51 87 54 -1 4 -11 26 -23 49 l-22 42 -55 -51z"/>
<path d="M9758 16933 c7 -3 16 -2 19 1 4 3 -2 6 -13 5 -11 0 -14 -3 -6 -6z"/>
<path d="M9625 16916 c-38 -6 -69 -15 -69 -19 9 -49 8 -49 71 -21 53 23 101
56 78 53 -6 -1 -41 -6 -80 -13z"/>
<path d="M9398 16886 c-46 -27 -59 -39 -33 -31 16 5 17 5 5 -3 -8 -6 -18 -8
-22 -6 -12 7 -49 -21 -40 -31 4 -5 2 -5 -4 -2 -13 8 -247 -110 -234 -118 11
-7 33 3 103 43 31 18 61 31 66 27 12 -7 87 43 84 56 -2 4 4 6 12 3 8 -4 34 13
62 40 54 51 54 54 1 22z"/>
<path d="M9670 16869 c-41 -17 -78 -33 -82 -37 -4 -4 9 -35 28 -70 l35 -62 46
32 c51 37 67 61 58 88 -4 12 -2 20 4 20 6 0 11 5 11 11 0 6 -7 8 -16 5 -13 -5
-15 -1 -10 19 4 14 5 25 4 25 -2 0 -37 -14 -78 -31z"/>
<path d="M9783 16866 c1 -11 9 -21 17 -23 10 -3 11 -2 4 4 -6 4 -14 15 -17 23
-5 11 -6 9 -4 -4z"/>
<path d="M10005 16838 c-115 -49 -332 -155 -338 -165 -5 -8 172 -313 183 -313
7 0 45 79 132 270 100 221 108 240 100 239 -4 -1 -38 -15 -77 -31z"/>
<path d="M9790 16818 c0 -4 4 -8 9 -8 6 0 12 4 15 8 3 5 -1 9 -9 9 -8 0 -15
-4 -15 -9z"/>
<path d="M9473 16781 c-85 -45 -243 -143 -243 -151 1 -3 40 -23 88 -46 l87
-40 100 64 c139 90 132 78 96 151 -17 33 -37 61 -44 61 -6 0 -44 -18 -84 -39z"/>
<path d="M9790 16780 l-25 -21 28 12 c15 7 27 16 27 21 0 11 -1 10 -30 -12z"/>
<path d="M9215 16750 c-3 -5 -2 -10 4 -10 5 0 13 5 16 10 3 6 2 10 -4 10 -5 0
-13 -4 -16 -10z"/>
<path d="M9013 16663 c-18 -16 -48 -73 -39 -73 2 0 17 7 32 15 21 11 29 22 30
45 2 35 2 35 -23 13z"/>
<path d="M9063 16660 c3 -11 1 -20 -4 -20 -5 0 -9 -9 -9 -19 0 -22 -18 -37
-40 -33 -8 1 -31 -11 -50 -26 l-34 -29 32 -17 c31 -16 32 -16 98 25 108 66
127 82 109 92 -8 4 -20 5 -27 1 -6 -4 -8 -3 -5 3 3 5 -10 17 -29 26 -44 22
-47 21 -41 -3z"/>
<path d="M12987 16673 c-4 -3 -7 -13 -7 -22 1 -13 3 -13 11 2 11 19 8 33 -4
20z"/>
<path d="M13051 16675 c0 -5 3 -16 8 -23 7 -11 9 -10 14 3 4 9 3 14 -2 10 -5
-3 -12 1 -14 7 -3 7 -6 9 -6 3z"/>
<path d="M9569 16621 c-37 -21 -83 -50 -103 -63 l-37 -25 24 -15 c42 -28 221
-115 272 -133 101 -35 107 -36 100 -17 -15 40 -171 292 -180 291 -5 0 -40 -17
-76 -38z"/>
<path d="M9107 16553 c-48 -31 -86 -57 -84 -59 1 -2 49 -18 106 -36 93 -29
105 -31 125 -18 99 64 126 83 126 89 0 10 -151 81 -170 81 -8 0 -54 -26 -103
-57z"/>
<path d="M8768 16488 c-40 -34 -133 -116 -207 -182 l-133 -119 48 -13 c43 -11
52 -11 71 4 131 102 311 235 361 267 34 22 62 43 62 48 0 13 -54 30 -58 18 -2
-6 -8 -11 -13 -11 -6 0 -7 5 -4 10 9 15 -14 40 -36 40 -10 0 -51 -28 -91 -62z
m116 28 c-3 -8 -12 -17 -19 -20 -9 -3 -12 0 -8 10 7 20 -14 18 -26 -3 -9 -15
-10 -16 -11 -2 0 22 9 29 41 29 20 0 27 -4 23 -14z m-84 -41 c-7 -9 -15 -13
-18 -10 -3 2 1 11 8 20 7 9 15 13 18 10 3 -2 -1 -11 -8 -20z m16 -36 c-9 -19
-15 -29 -16 -22 0 15 22 64 27 60 2 -2 -3 -19 -11 -38z m-120 -128 c-38 -40
-175 -131 -195 -130 -14 0 -14 1 -1 6 23 9 141 89 180 122 45 39 52 39 16 2z"/>
<path d="M8419 16154 c0 -14 -2 -15 -6 -4 -4 10 -44 -26 -134 -120 -70 -74
-126 -136 -124 -138 14 -14 237 90 262 122 12 14 24 26 28 26 5 0 0 -9 -10
-20 -22 -25 -17 -33 9 -14 17 12 18 17 7 40 l-12 27 -22 -21 c-17 -16 -86 -59
-169 -109 -5 -2 -8 -2 -8 0 0 2 43 32 96 68 91 61 95 65 90 94 -5 29 -5 29 7
7 l13 -23 37 30 c42 32 39 37 -21 47 -37 6 -42 4 -43 -12z"/>
<path d="M7796 15855 c-3 -8 -1 -15 3 -15 5 0 11 7 15 15 3 8 1 15 -3 15 -5 0
-11 -7 -15 -15z"/>
<path d="M12530 15175 c0 -2 25 -16 56 -31 30 -14 53 -28 50 -31 -2 -2 -14 1
-26 7 -41 22 -11 -8 46 -46 30 -20 53 -39 50 -41 -3 -3 -18 4 -34 16 -36 25
-50 27 -31 5 23 -28 176 -144 190 -144 8 0 5 6 -7 15 -10 8 -14 15 -8 15 6 0
22 -8 35 -19 13 -10 42 -29 64 -41 22 -12 64 -36 94 -53 30 -17 51 -25 48 -20
-4 6 -1 14 5 16 7 3 3 6 -9 6 -13 1 -23 6 -23 11 0 6 3 9 8 9 19 -3 21 2 5 19
-12 12 -21 14 -25 8 -9 -14 -24 1 -32 34 -6 21 -5 22 4 8 7 -11 23 -18 43 -18
30 0 30 1 11 14 -29 21 -84 28 -77 10 3 -8 -1 -14 -8 -14 -9 -1 -7 -6 5 -15
13 -10 16 -19 10 -25 -10 -10 -90 42 -191 123 -49 39 -67 67 -43 67 6 0 10 -6
10 -14 0 -14 55 -63 125 -109 45 -31 60 -34 51 -11 -3 8 -2 13 2 10 4 -3 14
15 21 40 12 40 15 43 30 31 29 -26 79 -47 95 -41 12 5 15 2 10 -10 -5 -13 1
-16 32 -16 l39 1 -35 19 c-79 41 -323 140 -442 179 -124 40 -148 46 -148 36z
m405 -163 c-3 -3 -11 0 -18 7 -9 10 -8 11 6 5 10 -3 15 -9 12 -12z"/>
<path d="M12438 15098 c-26 -34 -45 -64 -43 -66 2 -2 53 -16 114 -32 l111 -28
-26 48 c-14 26 -45 69 -67 94 l-42 46 -47 -62z"/>
<path d="M12542 15119 c19 -24 52 -69 72 -100 20 -31 48 -61 62 -68 20 -9 24
-9 18 1 -6 10 -4 10 7 2 8 -5 27 -16 43 -23 23 -10 19 -3 -23 35 -29 26 -70
60 -92 76 -42 30 -49 40 -21 32 19 -6 -52 62 -82 78 -12 7 -7 -5 16 -33z m102
-105 c5 -14 4 -15 -9 -4 -17 14 -19 20 -6 20 5 0 12 -7 15 -16z"/>
<path d="M12960 14976 c0 -2 7 -7 16 -10 8 -3 12 -2 9 4 -6 10 -25 14 -25 6z"/>
<path d="M13175 14920 c-3 -6 1 -7 9 -4 18 7 21 14 7 14 -6 0 -13 -4 -16 -10z"/>
<path d="M13070 14869 c0 -5 5 -7 10 -4 6 3 10 8 10 11 0 2 -4 4 -10 4 -5 0
-10 -5 -10 -11z"/>
<path d="M12906 14530 c-23 -57 -22 -75 3 -52 10 9 35 31 54 49 l34 31 -30 6
c-44 9 -44 9 -61 -34z"/>
<path d="M13440 14551 c24 -20 40 -26 40 -16 0 2 -15 12 -32 20 l-33 16 25
-20z"/>
<path d="M13360 14552 c0 -5 11 -15 25 -22 14 -7 25 -17 25 -22 0 -11 27 -10
35 2 7 11 -49 42 -59 33 -3 -4 -6 -1 -6 5 0 7 -4 12 -10 12 -5 0 -10 -4 -10
-8z"/>
<path d="M13340 14521 c0 -10 45 -41 60 -41 6 0 8 5 5 10 -9 15 -65 42 -65 31z"/>
<path d="M13530 14510 c-8 -5 -12 -11 -10 -14 3 -2 14 2 24 10 22 15 10 19
-14 4z"/>
<path d="M13320 14490 c0 -5 8 -14 18 -19 16 -10 16 -10 0 -11 -10 0 -18 -7
-18 -16 0 -9 5 -13 13 -10 6 3 20 9 30 12 23 9 21 19 -8 38 -28 18 -35 20 -35
6z"/>
<path d="M13439 14483 c-12 -15 -12 -16 4 -10 10 4 25 7 33 7 9 0 12 5 9 10
-9 15 -31 12 -46 -7z"/>
<path d="M13550 14490 c-17 -11 -25 -4 88 -78 51 -34 108 -73 126 -87 29 -22
35 -23 46 -10 7 8 16 12 21 9 11 -6 -8 -45 -20 -41 -5 1 -11 -2 -12 -7 -7 -17
36 -12 53 5 15 16 14 19 -10 42 -34 33 -252 177 -266 177 -6 0 -18 -4 -26 -10z"/>
<path d="M13282 14463 c4 -22 24 -27 31 -9 3 8 -2 16 -14 19 -15 4 -19 1 -17
-10z"/>
<path d="M13495 14470 c-3 -5 -18 -10 -32 -10 -21 0 -24 -2 -13 -15 7 -8 15
-15 19 -15 7 1 44 50 37 50 -3 0 -8 -4 -11 -10z"/>
<path d="M13183 14444 c-48 -28 -59 -43 -15 -20 30 16 70 45 62 46 -3 0 -24
-12 -47 -26z"/>
<path d="M13507 14442 c-16 -17 -11 -22 76 -93 50 -41 107 -84 124 -94 31 -18
34 -18 50 -2 16 16 16 17 -7 18 -14 0 -19 3 -11 6 10 4 3 16 -25 40 -33 29
-34 31 -9 17 17 -10 38 -24 48 -32 9 -9 20 -13 23 -10 8 9 -223 168 -244 168
-5 0 -16 -8 -25 -18z"/>
<path d="M13164 14404 c-64 -38 -167 -142 -160 -161 3 -6 -3 -14 -12 -16 -15
-4 -15 -5 1 -6 10 0 41 10 70 25 43 21 48 21 27 5 -27 -22 -21 -28 11 -11 10
6 19 7 19 3 0 -4 -24 -21 -53 -36 -38 -19 -53 -33 -52 -47 2 -28 23 -49 44
-43 10 3 22 0 25 -5 4 -6 -3 -8 -16 -5 -18 3 -11 -7 27 -42 81 -75 262 -215
279 -215 10 0 16 15 20 53 11 102 14 111 12 35 -2 -54 1 -75 8 -71 6 4 31 21
56 38 60 42 120 78 120 72 0 -3 -27 -22 -59 -41 -33 -20 -82 -57 -109 -81 -53
-48 -62 -52 -62 -32 0 6 -49 51 -108 98 -124 100 -179 139 -198 139 -7 0 -32
18 -55 40 -23 22 -45 40 -48 40 -3 -1 -26 -19 -51 -41 -25 -22 -40 -39 -35
-38 19 3 35 -1 35 -9 0 -4 -15 -7 -34 -6 -32 2 -113 -42 -101 -54 3 -3 13 2
22 10 10 8 27 18 38 22 18 6 17 5 -4 -18 -13 -13 -36 -30 -52 -36 -16 -7 -29
-16 -29 -21 0 -13 42 -22 49 -11 3 6 11 0 17 -13 12 -25 13 -25 -41 -3 -29 12
-124 19 -106 8 5 -3 -8 -20 -30 -38 -35 -30 -56 -33 -27 -4 13 13 5 27 -11 17
-6 -3 -11 -23 -11 -43 0 -25 -3 -32 -9 -23 -19 30 -78 -30 -64 -65 10 -26 83
-94 101 -94 9 0 34 17 56 38 l39 37 -26 -36 c-30 -40 -35 -90 -12 -109 10 -8
12 -18 6 -29 -5 -9 -6 -22 -3 -29 3 -11 0 -12 -16 -3 -10 6 -22 7 -26 4 -3 -3
-6 -1 -6 5 0 7 9 12 20 12 13 0 20 7 20 19 0 25 -20 38 -31 20 -7 -11 -9 -11
-9 2 0 31 -28 30 -35 -2 -7 -33 -25 -39 -25 -9 0 11 -5 20 -12 20 -6 0 -3 9 7
20 18 20 18 21 -20 60 -43 44 -65 51 -65 20 0 -11 -5 -20 -11 -20 -7 0 -9 -9
-6 -21 4 -16 3 -19 -5 -11 -6 6 -10 22 -10 36 0 14 -4 26 -9 26 -5 0 -8 -3 -8
-7 4 -25 -3 -43 -16 -43 -8 0 -15 -5 -15 -11 0 -5 -9 -9 -19 -7 -10 2 -37 -12
-60 -30 -41 -33 -55 -60 -26 -48 8 3 15 2 15 -3 0 -5 12 -12 28 -16 l27 -7
-27 -10 c-32 -11 -37 -28 -9 -28 11 0 23 -5 27 -11 3 -6 15 -9 25 -6 11 3 19
1 19 -4 0 -6 6 -9 13 -8 23 3 40 -1 34 -8 -9 -8 24 -32 46 -33 22 0 22 -18 0
-22 -14 -2 -11 -7 11 -21 15 -10 31 -16 34 -12 4 3 0 10 -8 15 -8 6 -10 10 -4
10 5 0 15 -5 21 -11 7 -7 15 -6 26 5 9 9 20 16 26 16 6 0 11 8 11 19 0 13 7
19 27 19 l27 0 -30 -27 c-17 -14 -38 -38 -48 -53 -20 -33 -36 -35 -61 -8 -19
20 -41 28 -30 10 10 -16 -9 -12 -92 21 -90 36 -92 37 -74 48 10 6 9 10 -4 14
-10 4 -14 3 -10 -4 5 -7 -5 -8 -28 -4 -35 7 -85 -11 -116 -42 -8 -8 -24 -13
-37 -10 -16 3 -24 -2 -27 -15 -3 -10 -13 -18 -22 -18 -12 0 -15 -5 -11 -16 14
-36 6 -429 -9 -471 -2 -7 3 -13 12 -13 15 0 15 -1 1 -12 -9 -7 -19 -35 -23
-63 -11 -87 -74 -316 -112 -410 -84 -209 -212 -405 -363 -555 -58 -58 -104
-110 -102 -116 1 -6 -24 -29 -55 -50 -82 -54 -88 -63 -18 -24 108 59 255 182
255 213 0 11 3 18 6 14 3 -3 18 8 32 24 l27 30 1 -25 c1 -16 -3 -26 -11 -26
-8 0 -16 -9 -20 -19 -3 -11 -17 -27 -31 -36 -25 -16 -49 -60 -45 -83 1 -7 -5
-15 -13 -18 -9 -3 -13 -10 -11 -15 3 -4 -3 -17 -15 -29 -11 -11 -20 -17 -20
-14 0 4 -6 1 -13 -5 -8 -6 -18 -7 -22 -3 -5 4 -5 2 -1 -5 3 -6 -1 -14 -11 -18
-10 -3 -27 -17 -37 -32 -11 -14 -14 -23 -8 -19 7 4 12 3 12 -2 0 -5 -16 -17
-35 -28 -19 -10 -35 -22 -35 -27 0 -17 136 65 245 148 70 53 187 161 322 298
117 118 209 209 206 203 -20 -31 -377 -411 -442 -469 -65 -58 -239 -181 -361
-255 -19 -12 -29 -22 -21 -22 11 0 11 -3 1 -15 -10 -13 -9 -15 9 -15 11 0 21
-4 21 -10 0 -5 4 -10 10 -10 15 0 50 -33 44 -42 -3 -4 0 -8 7 -8 6 0 0 -9 -15
-21 -31 -25 -210 -81 -327 -103 -46 -9 -106 -20 -134 -26 l-50 -9 60 5 c33 3
56 2 52 -2 -5 -5 -56 -9 -115 -10 -59 -1 -123 -5 -142 -8 -19 -2 -82 -6 -139
-7 -162 -3 -89 -16 163 -28 126 -6 231 -13 234 -16 6 -5 -66 -9 -110 -6 -47 4
-31 -16 20 -24 42 -7 44 -8 23 -16 -36 -14 -21 -19 24 -9 22 5 54 9 70 9 21
-1 9 -6 -38 -19 -38 -10 -71 -21 -74 -24 -4 -3 -12 -1 -20 5 -16 14 -17 5 -3
-22 10 -18 19 -19 124 -15 299 13 561 98 834 270 144 91 233 166 413 348 145
146 159 158 193 158 33 0 35 -2 25 -19 -7 -10 -21 -23 -31 -30 -17 -11 -19
-10 -16 6 2 10 10 17 16 15 7 -1 12 2 12 8 0 11 -20 13 -44 4 -8 -3 -41 -38
-73 -77 -154 -192 -331 -351 -546 -492 -136 -89 -163 -116 -109 -108 19 3 23
2 14 -5 -11 -7 -10 -11 4 -16 10 -4 21 -1 26 6 6 10 8 10 8 1 0 -7 12 -13 28
-13 15 0 34 6 41 13 11 10 11 8 1 -11 -10 -21 -5 -20 47 13 137 87 292 204
377 284 50 47 73 65 51 40 -59 -68 -246 -223 -355 -295 -230 -151 -410 -223
-675 -270 -136 -24 -443 -25 -570 -2 -92 17 -162 13 -158 -10 2 -7 -1 -12 -7
-12 -15 0 10 -47 29 -54 9 -3 23 -10 31 -15 81 -52 216 -78 470 -89 130 -6
138 -8 80 -14 -71 -7 -262 4 -380 22 -119 19 -341 96 -479 166 -117 59 -271
164 -348 237 -39 37 -53 32 -18 -5 14 -15 21 -30 15 -33 -5 -3 -7 -12 -3 -20
3 -10 -1 -15 -13 -15 -15 0 -12 -6 14 -30 44 -39 100 -73 267 -164 77 -41 137
-76 134 -76 -3 0 -39 14 -80 30 -130 54 -319 164 -319 186 0 7 -16 21 -36 33
-39 23 -48 26 -39 11 14 -22 -10 -8 -64 39 -55 47 -101 77 -101 66 0 -35 125
-206 240 -328 223 -237 501 -420 854 -564 61 -24 122 -56 136 -71 l25 -25 -28
17 c-15 9 -67 30 -115 45 -121 41 -332 128 -353 147 -9 8 -23 14 -31 13 -26
-3 -37 1 -33 14 3 7 -21 27 -57 47 -33 19 -108 68 -165 108 -57 39 -108 72
-114 72 -5 0 -9 6 -9 13 0 15 -35 37 -69 43 -14 3 -31 11 -37 19 -15 20 -25
19 -17 -2 6 -16 5 -16 -10 -4 -15 12 -17 12 -11 -3 4 -11 1 -16 -14 -16 -11 0
-22 -4 -24 -10 -4 -12 -154 157 -150 171 1 6 -2 8 -8 4 -5 -3 -10 -1 -10 4 0
6 -4 11 -9 11 -5 0 -7 -10 -4 -22 7 -30 -4 -18 -55 55 -30 43 -41 53 -44 40
-3 -12 -15 5 -36 50 -17 37 -34 67 -37 67 -3 0 -3 -6 1 -12 5 -9 2 -9 -9 1 -9
7 -17 21 -17 30 0 14 -2 14 -10 1 -9 -13 -10 -13 -10 0 0 12 -2 12 -9 2 -4 -8
-12 -14 -17 -13 -5 0 -9 -9 -8 -19 0 -11 -3 -20 -7 -20 -7 0 -62 109 -100 198
l-22 53 -20 -21 c-19 -22 -19 -22 8 -106 15 -46 31 -84 36 -84 8 0 31 -71 25
-77 -2 -2 -11 4 -20 13 -26 25 -28 11 -7 -38 22 -53 67 -93 86 -78 9 8 14 2
19 -22 3 -17 2 -36 -3 -41 -5 -5 -7 -16 -4 -25 4 -10 2 -13 -5 -8 -7 4 -12 1
-12 -9 0 -9 4 -14 9 -11 5 3 14 -1 21 -9 18 -21 -13 -20 -34 1 -9 9 -24 17
-33 18 -9 2 -18 7 -20 13 -2 6 7 8 22 6 14 -3 25 -1 25 5 0 16 -18 24 -22 11
-8 -25 -37 24 -79 131 -43 108 -45 111 -71 106 -33 -6 -39 13 -7 21 11 3 18
11 16 17 -2 6 -16 48 -31 94 -15 45 -31 82 -35 82 -3 0 -5 -19 -4 -42 l3 -43
-15 40 -15 40 6 -63 c11 -136 97 -392 191 -572 31 -58 70 -134 88 -170 18 -36
62 -111 99 -168 109 -167 112 -204 5 -60 -74 100 -131 197 -123 209 3 5 0 8
-8 7 -7 -2 -12 5 -12 14 1 10 -2 16 -6 15 -10 -3 -70 107 -70 128 0 9 -4 13
-10 10 -5 -3 -10 2 -10 12 -1 10 -9 32 -18 49 -44 82 -57 112 -89 202 -19 54
-35 103 -35 110 -1 6 -10 12 -22 12 -11 0 -33 12 -48 27 -32 30 -44 24 -50
-22 -3 -26 0 -30 25 -33 34 -4 36 -22 3 -22 -36 0 -38 -11 -21 -86 8 -37 14
-68 12 -70 -4 -5 -41 109 -39 119 1 4 -2 7 -7 7 -5 0 -8 21 -6 47 1 31 -3 52
-11 58 -8 5 -17 28 -22 50 l-8 40 -22 -58 c-12 -32 -40 -91 -62 -130 -21 -40
-78 -155 -125 -257 -48 -102 -91 -189 -96 -195 -6 -5 15 45 46 112 30 67 55
129 55 137 0 13 -54 136 -68 156 -2 3 -28 -21 -58 -52 -51 -55 -74 -70 -74
-48 0 6 11 15 24 19 28 11 96 89 96 110 -1 9 -7 27 -16 41 l-15 25 6 -25 c6
-24 5 -24 -9 -6 -17 21 -21 19 -85 -41 -20 -18 -40 -29 -50 -26 -12 4 -13 2
-3 -4 10 -7 8 -14 -8 -28 -18 -17 -23 -17 -31 -5 -8 11 -9 10 -4 -7 4 -16 0
-26 -19 -39 -14 -9 -24 -20 -21 -24 3 -5 -3 -14 -12 -19 -17 -10 -17 -12 3
-28 12 -10 30 -24 40 -31 11 -7 0 -3 -23 8 l-42 20 -6 -33 c-3 -17 -10 -68
-15 -112 l-8 -80 1 88 c2 79 -4 107 -16 75 -2 -7 -8 -10 -12 -6 -5 5 0 17 10
28 15 16 16 22 5 35 -11 13 -15 13 -21 3 -6 -9 -9 -6 -9 10 0 12 -4 22 -10 22
-5 0 -10 -11 -10 -24 0 -14 -5 -28 -12 -32 -8 -5 -9 -2 -5 9 7 20 -4 22 -21 5
-7 -7 -12 -8 -12 -3 0 5 -7 0 -16 -11 -8 -10 -13 -12 -9 -4 4 10 2 9 -8 -2 -8
-10 -18 -14 -22 -10 -5 4 -5 2 -1 -5 4 -7 -19 -30 -61 -60 -38 -26 -69 -51
-71 -55 -2 -4 -9 -5 -15 -2 -7 2 -22 -4 -34 -15 -11 -11 -44 -31 -73 -46 -110
-56 -120 -35 131 -269 121 -114 223 -205 226 -203 2 3 -28 68 -66 146 -39 77
-71 144 -71 148 1 5 38 -64 83 -151 45 -88 87 -159 92 -158 6 1 13 23 16 49 5
45 6 43 7 -21 1 -41 6 -66 11 -60 5 5 56 95 114 199 111 197 139 245 111 185
-44 -95 -229 -413 -322 -553 -58 -86 -103 -159 -101 -161 10 -10 458 -117 568
-135 413 -70 847 -67 1252 9 430 80 817 234 1121 446 51 35 77 51 58 34 -19
-17 -73 -57 -120 -89 -450 -308 -1051 -475 -1710 -474 -390 0 -707 45 -1079
152 -57 17 -108 28 -112 25 -4 -2 -18 -22 -30 -44 -13 -22 -27 -40 -32 -40
-12 0 -166 92 -229 136 -30 21 -50 29 -54 23 -7 -13 -42 -7 -99 15 -30 11 -34
15 -17 16 13 0 32 -5 43 -11 11 -5 34 -9 50 -7 l31 3 -53 40 c-76 58 -201 135
-209 130 -5 -3 -21 2 -36 10 -25 13 -29 13 -37 0 -4 -9 -12 -13 -16 -10 -5 2
-17 -5 -27 -16 -16 -18 -16 -19 -1 -13 10 3 17 1 17 -5 0 -6 -4 -11 -10 -11
-5 0 -10 -4 -10 -10 0 -5 7 -10 15 -10 8 0 15 -5 15 -10 0 -10 28 -25 150 -76
30 -13 49 -24 42 -24 -7 0 -17 -10 -23 -22 l-10 -23 5 23 c4 21 -3 27 -57 51
-34 16 -84 39 -112 52 -27 12 -53 22 -57 21 -5 -1 -8 3 -8 8 0 6 -6 5 -14 -2
-8 -7 -12 -17 -9 -22 3 -4 0 -12 -7 -16 -17 -10 107 -73 285 -145 71 -29 175
-72 230 -95 313 -132 715 -230 1110 -271 241 -25 686 -8 930 37 25 4 27 3 12
-6 -10 -6 -97 -27 -195 -46 -194 -37 -252 -54 -327 -93 l-50 -26 58 -3 c32 -2
55 -7 52 -12 -3 -5 -30 -6 -61 -3 l-55 6 12 -26 c17 -37 83 -66 186 -83 49 -8
97 -20 108 -26 14 -9 61 -11 155 -8 268 8 262 10 231 -61 -26 -56 -26 -114 -2
-162 l19 -38 -36 -15 c-103 -43 -405 -117 -611 -150 -57 -10 -204 -19 -361
-23 -249 -6 -268 -8 -312 -29 -93 -46 -121 -150 -65 -245 44 -74 118 -119 244
-147 193 -44 -87 -86 -397 -60 -319 26 -547 71 -810 160 -168 57 -283 81 -302
62 -14 -14 -19 -10 72 -60 241 -131 607 -261 919 -327 142 -30 460 -64 666
-72 116 -4 192 -10 170 -13 -63 -9 -264 -2 -465 15 -286 25 -577 84 -826 167
-143 47 -150 49 -146 30 1 -8 -2 -11 -8 -7 -6 4 -9 14 -6 22 4 8 1 11 -5 8 -6
-4 -8 -13 -5 -21 3 -8 1 -14 -5 -14 -6 0 -8 -4 -5 -9 3 -5 -1 -11 -8 -14 -8
-3 -17 -1 -20 6 -3 7 -4 1 -3 -13 1 -14 11 -34 22 -45 12 -11 13 -14 4 -6 -16
12 -18 10 -15 -15 2 -15 9 -30 17 -32 11 -3 10 -1 -1 7 -13 10 -13 11 0 11 8
0 27 -6 41 -14 24 -12 79 -30 89 -29 3 1 11 -6 19 -14 12 -13 11 -14 -10 -8
-54 17 -55 17 -39 7 29 -19 286 -100 382 -121 144 -31 376 -67 519 -81 l125
-12 12 -44 c15 -56 43 -70 158 -83 234 -26 814 -19 891 10 38 14 239 51 283
51 114 0 736 229 774 284 15 21 214 519 236 589 14 44 37 75 56 75 6 0 47 16
90 36 153 69 166 75 170 71 3 -2 -34 -21 -81 -42 -47 -21 -84 -40 -82 -41 2
-2 31 6 66 16 34 11 68 20 74 19 7 0 -22 -11 -63 -25 -41 -13 -80 -22 -86 -20
-6 2 -11 -1 -11 -8 0 -8 22 -11 71 -10 70 2 70 2 16 -5 -52 -7 -53 -7 -20 -13
19 -3 4 -3 -35 -1 -79 5 -77 -2 10 -37 33 -12 119 -51 191 -85 l131 -62 73 60
c63 52 71 62 54 68 -15 6 -13 8 11 9 23 1 50 20 119 85 49 47 83 85 75 85 -7
0 7 13 32 28 24 16 74 62 112 102 37 40 70 70 74 66 4 -3 -3 -13 -15 -22 -12
-8 -22 -21 -22 -29 0 -7 -8 -16 -18 -19 -10 -3 -40 -29 -67 -57 -49 -49 -49
-50 -20 -44 23 5 26 4 15 -4 -8 -6 -23 -11 -33 -11 -15 0 -50 -30 -185 -158
-13 -13 -21 -27 -16 -32 11 -10 164 -60 184 -60 8 0 44 26 80 58 36 32 76 66
89 75 49 33 293 271 333 324 36 47 39 55 27 71 -13 15 -12 16 4 3 20 -16 19
-17 41 27 19 37 31 43 20 10 -7 -22 -7 -22 22 -4 16 10 40 28 54 40 14 11 12
8 -5 -9 -17 -16 -49 -44 -71 -61 l-39 -32 19 -36 c11 -20 23 -36 27 -36 12 0
251 301 245 308 -3 2 -14 -1 -23 -9 -16 -13 -17 -12 -5 3 8 10 22 20 33 23 10
4 19 11 19 17 0 5 -6 8 -13 5 -6 -2 -18 1 -24 8 -9 10 -9 14 2 19 8 3 22 3 30
0 11 -5 15 8 18 63 l3 68 2 -70 2 -70 25 30 25 30 -22 -40 c-19 -35 -75 -109
-272 -358 -111 -141 -396 -442 -526 -555 -130 -114 -145 -126 -162 -137 -9 -5
-97 -65 -196 -132 -100 -68 -184 -123 -187 -123 -3 0 -18 -9 -33 -19 -23 -17
-201 -66 -314 -86 -21 -4 -38 -11 -38 -16 0 -5 -6 -6 -13 -3 -8 3 -20 -11 -31
-36 -10 -22 -21 -38 -26 -35 -5 3 -13 -3 -19 -12 -6 -10 -11 -14 -11 -9 0 17
-30 -17 -30 -35 0 -11 -5 -19 -10 -19 -6 0 -21 -9 -33 -21 -12 -11 -86 -53
-164 -92 -79 -39 -141 -72 -140 -74 4 -4 146 45 252 87 121 47 353 164 482
242 63 39 117 67 120 64 4 -3 1 -6 -6 -6 -9 0 -9 -3 1 -14 11 -11 15 -11 26 3
11 14 13 12 9 -16 -3 -32 -3 -32 15 -16 18 16 18 16 12 -1 -9 -25 12 -36 49
-25 21 6 35 5 45 -3 8 -7 28 -11 44 -10 24 2 29 -1 24 -13 -4 -11 -2 -14 7 -9
35 21 90 66 161 132 43 40 80 71 83 69 2 -2 20 11 40 29 20 18 39 32 43 31 12
-4 89 76 83 86 -4 6 1 8 11 4 9 -4 15 -3 12 2 -4 5 13 24 36 43 46 37 69 60
111 112 16 20 34 34 40 33 6 -1 12 3 12 8 3 21 17 45 24 40 10 -5 58 45 153
161 86 105 148 191 127 178 -10 -6 -9 -1 3 16 9 14 22 24 28 22 6 -1 9 2 5 8
-8 13 21 61 35 57 6 -1 20 14 32 33 19 30 20 33 4 20 -18 -14 -19 -14 -7 8 7
12 17 20 23 16 6 -4 8 -3 4 4 -8 13 33 84 44 77 5 -3 12 0 16 6 5 8 3 9 -6 4
-14 -9 -14 -9 20 58 13 26 28 47 32 47 5 0 -3 -21 -18 -47 -37 -65 -18 -44 43
47 63 93 161 265 197 344 30 65 43 80 70 83 16 1 18 -4 13 -40 -2 -23 -3 -36
0 -29 6 16 23 5 23 -15 0 -9 -6 -13 -15 -9 -18 6 -21 -19 -3 -30 7 -4 8 -3 4
4 -4 7 -5 12 -2 12 3 0 10 -9 16 -20 8 -16 8 -28 -4 -50 -13 -27 -13 -30 0
-30 11 0 14 -6 9 -22 -21 -78 113 233 187 432 113 305 209 706 254 1060 35
279 29 839 -11 1110 -8 52 -17 111 -19 130 -10 69 44 -158 83 -349 22 -107 45
-199 51 -205 7 -7 10 -5 10 7 0 53 -54 424 -75 518 -14 61 -25 121 -24 133 3
64 92 -366 114 -549 18 -148 24 -175 36 -175 16 0 39 58 50 132 15 95 -1 343
-27 430 -4 13 4 20 36 28 45 12 101 57 127 101 10 16 20 29 24 29 11 0 102
-231 147 -370 49 -151 65 -214 97 -370 35 -174 67 -225 156 -252 58 -17 113 3
171 62 l47 49 5 -27 c31 -149 51 -375 70 -755 4 -87 18 -129 29 -91 65 220 78
761 27 1124 -12 81 -11 118 1 67 26 -109 59 -398 59 -510 0 -82 4 -127 12
-135 9 -9 9 -12 0 -12 -7 0 -12 -7 -12 -15 0 -8 7 -15 16 -15 8 0 12 5 9 10
-3 6 -1 10 4 10 6 0 11 7 11 15 0 8 5 15 11 15 5 0 7 -5 3 -12 -5 -7 -2 -9 9
-5 10 4 24 -4 40 -22 l23 -28 23 34 c12 19 20 38 16 41 -3 4 -10 0 -15 -8 -6
-8 -10 -10 -10 -4 0 6 7 17 15 24 9 7 14 19 11 27 -3 7 0 13 6 13 8 0 9 46 5
168 -15 383 -68 667 -203 1092 l-56 175 24 43 25 42 52 -107 c125 -255 198
-471 267 -782 19 -85 45 -178 58 -207 27 -58 95 -138 137 -160 72 -37 158 -1
179 74 35 127 -23 497 -136 862 -44 141 -147 405 -219 556 -106 224 -309 566
-453 764 -271 369 -662 761 -962 963 -32 22 -47 22 -28 0 9 -10 21 -29 27 -43
11 -22 9 -21 -16 7 l-28 31 -30 -19 c-16 -10 -41 -23 -53 -29 -13 -6 -26 -19
-29 -30 -3 -11 -9 -17 -14 -15 -4 3 -13 -4 -19 -15 -6 -11 -16 -17 -22 -14 -7
5 -2 15 15 30 15 13 27 33 27 46 0 16 -3 19 -8 10 -5 -7 -16 -10 -25 -6 -20 7
-22 -7 -4 -25 6 -7 -2 -4 -20 5 -31 18 -35 34 -7 34 21 0 17 13 -10 30 -13 8
-61 45 -106 83 -45 37 -87 67 -94 67 -6 0 -17 -14 -25 -32 -16 -36 -27 -23
118 -139 55 -44 80 -58 95 -54 17 5 18 4 6 -4 -13 -10 -8 -18 28 -51 24 -22
46 -40 50 -40 3 0 14 7 24 17 17 15 18 15 18 -12 0 -22 25 -53 131 -159 177
-176 349 -388 452 -556 32 -52 23 -42 -105 129 -116 156 -219 275 -341 399
-102 102 -130 119 -140 82 -3 -11 -10 -20 -16 -20 -7 0 -6 9 4 23 14 22 14 26
-6 51 l-21 26 -31 -21 -32 -21 28 25 28 24 -26 17 c-15 10 -33 15 -41 12 -11
-4 -14 -1 -11 12 7 25 -231 222 -244 201 -5 -8 -9 -10 -9 -5 0 5 -10 1 -22
-10 -22 -19 -22 -19 1 11 l23 30 -29 22 c-41 33 -61 37 -91 17 l-27 -17 19 22
c21 23 21 23 -11 40 -33 17 -44 14 -109 -25z m96 -38 c0 -2 -8 -10 -17 -17
-16 -13 -17 -12 -4 4 13 16 21 21 21 13z m-85 -62 c-26 -20 -55 -36 -55 -30 0
5 63 46 70 46 3 -1 -4 -8 -15 -16z m303 -69 c-3 -3 -9 2 -12 12 -6 14 -5 15 5
6 7 -7 10 -15 7 -18z m-61 -142 c-2 -32 -3 -8 -3 52 0 61 1 87 3 58 2 -29 2
-78 0 -110z m-167 49 c0 -4 -10 -13 -22 -21 -23 -14 -23 -14 -4 8 20 22 26 25
26 13z m237 2 c-3 -3 -12 -4 -19 -1 -8 3 -5 6 6 6 11 1 17 -2 13 -5z m-337
-39 c0 -16 -27 -32 -37 -21 -7 7 16 36 28 36 5 0 9 -7 9 -15z m40 -15 c0 -5
-5 -10 -11 -10 -5 0 -7 5 -4 10 3 6 8 10 11 10 2 0 4 -4 4 -10z m-321 -206
c-6 -8 -16 -14 -21 -14 -16 0 -73 -54 -74 -70 -1 -8 -19 -59 -40 -112 -37 -97
-37 -98 -18 -120 14 -17 15 -19 2 -9 -9 7 -22 10 -28 6 -17 -10 -12 7 35 126
25 63 45 115 45 117 0 1 -10 -2 -22 -8 -17 -8 -15 -4 7 14 23 20 29 32 27 56
-2 16 1 30 6 30 5 0 7 -11 4 -25 -5 -30 8 -32 33 -5 10 11 14 20 9 20 -5 0 -3
4 5 9 22 14 44 2 30 -15z m216 6 c3 -5 -1 -10 -9 -10 -9 0 -16 5 -16 10 0 6 4
10 9 10 6 0 13 -4 16 -10z m835 -20 c0 -5 -2 -10 -4 -10 -3 0 -8 5 -11 10 -3
6 -1 10 4 10 6 0 11 -4 11 -10z m398 -17 c-15 -15 -31 -24 -34 -20 -8 8 34 47
50 47 6 0 -2 -12 -16 -27z m-1741 -65 c-3 -7 -5 -2 -5 12 0 14 2 19 5 13 2 -7
2 -19 0 -25z m1288 -8 c-3 -5 -10 -10 -16 -10 -5 0 -9 5 -9 10 0 6 7 10 16 10
8 0 12 -4 9 -10z m-935 -60 c0 -5 -5 -10 -11 -10 -5 0 -7 5 -4 10 3 6 8 10 11
10 2 0 4 -4 4 -10z m889 -24 c16 -19 -6 -66 -30 -66 -27 0 -32 16 -14 50 17
33 27 37 44 16z m-1119 -26 c-6 -12 -14 -20 -17 -17 -2 3 1 14 8 26 17 26 24
19 9 -9z m-175 -60 c-3 -5 -13 -10 -21 -10 -8 0 -12 5 -9 10 3 6 13 10 21 10
8 0 12 -4 9 -10z m-75 -10 c0 -5 -5 -10 -11 -10 -5 0 -7 5 -4 10 3 6 8 10 11
10 2 0 4 -4 4 -10z m565 -120 c-82 -83 -107 -113 -100 -124 6 -7 50 -65 98
-129 629 -833 846 -2037 567 -3158 -39 -156 -116 -388 -179 -539 -54 -127
-158 -340 -166 -340 -2 0 12 35 31 78 20 42 51 115 69 162 18 47 54 134 79
194 48 115 117 352 165 576 112 512 120 1095 21 1615 -100 529 -313 1016 -635
1454 -37 50 -71 88 -77 85 -6 -4 -8 -1 -5 7 2 8 -20 40 -52 74 l-56 60 63 -60
62 -60 108 108 c59 59 109 107 112 107 2 0 -45 -50 -105 -110z m-233 67 c-12
-13 -19 -27 -15 -30 3 -4 0 -7 -9 -7 -8 0 -15 7 -15 15 0 8 3 12 7 10 4 -3 15
4 25 15 10 11 20 20 23 20 3 0 -4 -10 -16 -23z m899 -8 c-9 -22 -10 -22 -10
-3 -1 11 2 24 6 27 12 12 14 0 4 -24z m-1291 7 c0 -11 -19 -15 -25 -6 -3 5 1
10 9 10 9 0 16 -2 16 -4z m1270 -15 c0 -6 -4 -13 -10 -16 -5 -3 -10 1 -10 9 0
9 5 16 10 16 6 0 10 -4 10 -9z m-1043 -33 c-3 -7 -5 -2 -5 12 0 14 2 19 5 13
2 -7 2 -19 0 -25z m-27 -10 c0 -18 -2 -20 -9 -8 -6 8 -7 18 -5 22 9 14 14 9
14 -14z m660 -40 c0 -22 -26 -58 -42 -58 -13 0 -9 29 8 55 20 31 34 32 34 3z
m323 -22 c7 -17 -28 -51 -42 -41 -12 7 -15 38 -4 48 11 12 41 7 46 -7z m-548
-46 c-5 -8 -11 -8 -17 -2 -6 6 -7 16 -3 22 5 8 11 8 17 2 6 -6 7 -16 3 -22z
m-415 -10 c0 -5 -2 -10 -4 -10 -3 0 -8 5 -11 10 -3 6 -1 10 4 10 6 0 11 -4 11
-10z m71 -31 c29 -29 23 -73 -12 -77 -35 -4 -58 44 -37 77 16 26 23 26 49 0z
m-231 4 c-8 -4 -21 -14 -28 -25 -16 -22 -32 -24 -32 -3 0 17 28 35 55 34 14 0
16 -2 5 -6z m-180 -13 c0 -5 -4 -10 -10 -10 -5 0 -10 5 -10 10 0 6 5 10 10 10
6 0 10 -4 10 -10z m1860 -4 c0 -18 -19 -31 -28 -21 -4 4 -1 10 7 13 11 4 11 6
0 13 -11 7 -10 9 4 9 9 0 17 -6 17 -14z m-1330 -50 c0 -2 -8 -10 -17 -17 -16
-13 -17 -12 -4 4 13 16 21 21 21 13z m-40 -30 c0 -2 -8 -10 -17 -17 -16 -13
-17 -12 -4 4 13 16 21 21 21 13z m-590 -31 c0 -2 -13 -11 -30 -20 -16 -9 -30
-12 -30 -8 0 5 10 13 23 19 25 13 37 16 37 9z m1090 -68 c0 -11 -39 -47 -51
-47 -8 1 -2 11 14 25 26 24 37 30 37 22z m1120 -11 c0 -3 -4 -8 -10 -11 -5 -3
-10 -1 -10 4 0 6 5 11 10 11 6 0 10 -2 10 -4z m-2145 -54 c-20 -17 -112 -80
-136 -92 -23 -13 -24 -12 -6 7 9 11 17 25 17 31 0 6 6 9 13 7 6 -3 35 9 62 25
50 30 67 37 50 22z m850 -113 c-4 -5 -13 -9 -22 -9 -13 0 -13 3 -3 15 13 15
35 11 25 -6z m-975 -9 c0 -5 -8 -10 -17 -10 -15 0 -16 2 -3 10 19 12 20 12 20
0z m120 -5 c0 -3 -28 -19 -62 -36 -35 -17 -58 -26 -53 -20 6 6 33 22 60 35 57
28 55 28 55 21z m144 -59 c-3 -8 -14 -16 -23 -19 -14 -3 -17 0 -14 14 3 11 14
19 24 19 12 0 16 -5 13 -14z m381 -26 c-3 -5 -14 -10 -23 -10 -15 0 -15 2 -2
10 20 13 33 13 25 0z m-465 -81 c0 -22 -25 -48 -47 -49 -9 0 -8 10 4 35 19 39
43 47 43 14z m677 -154 c-4 -8 -13 -15 -22 -15 -21 0 -19 28 3 32 22 5 26 2
19 -17z m-661 -36 c24 -25 26 -32 17 -61 l-9 -33 -8 47 c-7 50 -25 68 -65 68
-34 0 -93 -69 -150 -178 -30 -56 -60 -107 -67 -113 -17 -14 120 238 144 264
22 25 70 46 92 40 10 -3 30 -18 46 -34z m841 -71 c-3 -8 -6 -5 -6 6 -1 11 2
17 5 13 3 -3 4 -12 1 -19z m-899 -160 c16 -14 15 -25 -3 -31 -9 -4 -23 6 -36
25 l-22 30 24 -7 c13 -4 30 -12 37 -17z m422 -32 c0 -8 -7 -16 -15 -20 -15 -5
-21 14 -8 27 11 12 23 8 23 -7z m-566 -146 c29 -10 34 -35 11 -44 -16 -6 -57
32 -49 46 6 10 7 10 38 -2z m86 -70 c0 -5 -5 -10 -11 -10 -5 0 -7 5 -4 10 3 6
8 10 11 10 2 0 4 -4 4 -10z m7 -92 c-3 -7 -5 -2 -5 12 0 14 2 19 5 13 2 -7 2
-19 0 -25z m209 -25 c-10 -10 -19 5 -10 18 6 11 8 11 12 0 2 -7 1 -15 -2 -18z
m1401 -135 c-3 -7 -5 -2 -5 12 0 14 2 19 5 13 2 -7 2 -19 0 -25z m1090 -25
c-3 -10 -5 -2 -5 17 0 19 2 27 5 18 2 -10 2 -26 0 -35z m-2732 -10 l-26 -28
22 39 c13 22 25 34 27 28 2 -6 -8 -24 -23 -39z m-451 16 c-3 -5 -10 -7 -15 -3
-5 3 -7 10 -3 15 3 5 10 7 15 3 5 -3 7 -10 3 -15z m-119 -19 c-3 -5 -11 -10
-16 -10 -6 0 -7 5 -4 10 3 6 11 10 16 10 6 0 7 -4 4 -10z m515 -84 c0 -2 -8
-10 -17 -17 -16 -13 -17 -12 -4 4 13 16 21 21 21 13z m427 -28 c-3 -7 -5 -2
-5 12 0 14 2 19 5 13 2 -7 2 -19 0 -25z m-217 -35 c-11 -17 -11 -17 -6 0 3 10
7 26 7 35 1 15 2 15 6 0 2 -10 -1 -25 -7 -35z m-393 -131 c-10 -10 -17 -26
-17 -34 0 -9 -7 -18 -14 -21 -11 -4 -13 -1 -9 11 6 15 5 15 -10 3 -12 -9 -15
-21 -11 -35 6 -18 5 -19 -9 -8 -14 12 -22 10 -54 -13 -33 -24 -32 -22 7 11 24
22 62 56 84 76 41 37 63 44 33 10z m3010 -24 c-3 -8 -6 -5 -6 6 -1 11 2 17 5
13 3 -3 4 -12 1 -19z m-3305 -62 c-19 -40 -60 -84 -94 -102 -38 -20 -47 -18
-40 9 8 31 107 126 130 124 17 -1 17 -3 4 -31z m3315 12 c-3 -8 -6 -5 -6 6 -1
11 2 17 5 13 3 -3 4 -12 1 -19z m10 -70 c-3 -7 -5 -2 -5 12 0 14 2 19 5 13 2
-7 2 -19 0 -25z m-3197 17 c0 -7 -111 -80 -150 -99 -37 -17 -36 -16 74 56 78
51 76 50 76 43z m180 -55 c0 -5 -7 -10 -16 -10 -8 0 -12 5 -9 10 3 6 10 10 16
10 5 0 9 -4 9 -10z m-370 -65 c0 -9 -162 -85 -179 -85 -9 0 9 11 39 23 30 13
73 33 95 45 45 24 45 24 45 17z m-30 -115 c0 -5 -4 -10 -10 -10 -5 0 -10 5
-10 10 0 6 5 10 10 10 6 0 10 -4 10 -10z m-402 -27 c-10 -2 -26 -2 -35 0 -10
3 -2 5 17 5 19 0 27 -2 18 -5z m-70 -10 c-10 -2 -26 -2 -35 0 -10 3 -2 5 17 5
19 0 27 -2 18 -5z m-138 -13 c-68 -10 -172 -11 -147 -2 10 4 59 8 110 8 82 2
86 1 37 -6z m237 -66 c-3 -3 -12 -4 -19 -1 -8 3 -5 6 6 6 11 1 17 -2 13 -5z
m2030 -96 c-3 -8 -6 -5 -6 6 -1 11 2 17 5 13 3 -3 4 -12 1 -19z m-3672 -167
c-2 -4 5 -7 15 -8 12 -1 20 6 23 20 3 21 4 21 12 3 6 -13 5 -21 -3 -24 -25 -8
-6 -55 43 -108 17 -18 49 -84 41 -84 -13 0 -64 63 -113 141 -80 126 -81 128
-45 95 17 -16 30 -32 27 -35z m2145 14 c0 -39 -64 -63 -77 -28 -7 19 29 53 58
53 14 0 19 -7 19 -25z m-2722 -12 c-4 -37 -38 -45 -38 -10 0 23 10 34 33 36 5
1 7 -11 5 -26z m202 17 c0 -5 -7 -10 -15 -10 -8 0 -18 0 -22 -1 -4 0 -9 4 -11
10 -2 6 8 11 22 11 14 0 26 -4 26 -10z m0 -40 c0 -5 -4 -10 -9 -10 -6 0 -13 5
-16 10 -3 6 1 10 9 10 9 0 16 -4 16 -10z m-20 -19 c0 -6 -4 -13 -10 -16 -5 -3
-10 1 -10 9 0 9 5 16 10 16 6 0 10 -4 10 -9z m6005 -61 c3 -5 1 -10 -4 -10 -6
0 -11 5 -11 10 0 6 2 10 4 10 3 0 8 -4 11 -10z m28 -33 c-9 -15 -21 4 -15 25
5 21 6 21 12 2 4 -10 5 -22 3 -27z m-4976 -4 c-9 -9 -20 -13 -24 -9 -4 4 -1
11 7 16 25 16 35 11 17 -7z m-792 -13 c3 -6 0 -13 -8 -16 -8 -3 -18 -15 -21
-27 -3 -12 -8 -18 -12 -14 -8 8 15 67 27 67 4 0 11 -5 14 -10z m-55 -30 c0 -5
-2 -10 -4 -10 -3 0 -8 5 -11 10 -3 6 -1 10 4 10 6 0 11 -4 11 -10z m1933 3
c-7 -2 -19 -2 -25 0 -7 3 -2 5 12 5 14 0 19 -2 13 -5z m-2129 -158 c14 -39 13
-44 -16 -104 -33 -69 -63 -91 -100 -73 -23 10 -23 11 5 11 15 1 27 7 27 14 0
9 2 9 9 -1 11 -18 24 -1 48 63 21 54 19 68 -16 169 -12 33 -21 62 -20 65 0 9
47 -97 63 -144z m537 108 c13 -16 12 -17 -3 -4 -17 13 -22 21 -14 21 2 0 10
-8 17 -17z m1189 -13 c76 -13 93 -18 50 -14 -66 6 -207 31 -180 32 8 1 67 -7
130 -18z m-1580 -33 c0 -5 -4 -5 -10 -2 -5 3 -10 14 -10 23 0 15 2 15 10 2 5
-8 10 -19 10 -23z m-265 -33 c21 -30 50 -64 64 -76 21 -16 22 -20 7 -17 -17 4
-75 75 -107 132 -20 35 -1 15 36 -39z m701 24 l29 -33 -32 29 c-18 17 -33 31
-33 33 0 8 8 1 36 -29z m-215 -20 c16 -29 2 -21 -22 15 -17 23 -18 28 -6 18
10 -8 23 -23 28 -33z m1547 35 c-10 -2 -28 -2 -40 0 -13 2 -5 4 17 4 22 1 32
-1 23 -4z m-2497 -20 c13 -16 12 -17 -3 -4 -17 13 -22 21 -14 21 2 0 10 -8 17
-17z m40 -30 c13 -16 12 -17 -3 -4 -17 13 -22 21 -14 21 2 0 10 -8 17 -17z
m4596 -15 c-3 -7 -5 -2 -5 12 0 14 2 19 5 13 2 -7 2 -19 0 -25z m-4556 -15
c13 -16 12 -17 -3 -4 -17 13 -22 21 -14 21 2 0 10 -8 17 -17z m951 -68 c14
-27 -1 -10 -41 45 l-33 45 32 -35 c17 -19 36 -44 42 -55z m399 68 c13 -16 12
-17 -3 -4 -17 13 -22 21 -14 21 2 0 10 -8 17 -17z m3174 -149 c-82 -365 -292
-847 -502 -1151 -97 -140 -247 -337 -300 -391 -51 -54 -51 -52 14 28 71 87
176 224 203 264 166 249 210 325 307 526 134 277 240 575 280 785 10 49 19 82
21 73 2 -9 -9 -69 -23 -134z m-4878 130 c-3 -3 -12 -4 -19 -1 -8 3 -5 6 6 6
11 1 17 -2 13 -5z m3048 -4 c9 -14 -13 -50 -30 -50 -15 0 -21 40 -8 53 10 10
31 8 38 -3z m-1895 -20 c10 -19 10 -20 -9 -8 -22 13 -28 28 -11 28 5 0 14 -9
20 -20z m185 -10 c3 -5 1 -10 -4 -10 -6 0 -11 5 -11 10 0 6 2 10 4 10 3 0 8
-4 11 -10z m444 -14 c10 -12 8 -13 -8 -9 -12 3 -21 9 -21 14 0 14 16 11 29 -5z
m826 -6 c3 -5 -1 -10 -10 -10 -9 0 -13 5 -10 10 3 6 8 10 10 10 2 0 7 -4 10
-10z m-2855 -30 c0 -5 -4 -10 -10 -10 -5 0 -10 5 -10 10 0 6 5 10 10 10 6 0
10 -4 10 -10z m1981 -15 c0 -13 -41 -19 -41 -7 0 11 20 22 33 18 5 -1 8 -6 8
-11z m-1801 -16 c0 -5 -4 -9 -10 -9 -5 0 -10 7 -10 16 0 8 5 12 10 9 6 -3 10
-10 10 -16z m530 5 c0 -8 -4 -12 -10 -9 -5 3 -10 10 -10 16 0 5 5 9 10 9 6 0
10 -7 10 -16z m-625 -25 c9 -17 15 -33 13 -35 -3 -2 -12 12 -21 31 -21 43 -13
47 8 4z m135 -8 c0 -11 -26 -22 -34 -14 -12 12 -5 23 14 23 11 0 20 -4 20 -9z
m184 -52 c-8 -14 -34 -11 -34 4 0 8 3 17 7 20 9 9 34 -13 27 -24z m1644 -10
c-2 -6 -8 -10 -13 -10 -5 0 -11 4 -13 10 -2 6 4 11 13 11 9 0 15 -5 13 -11z
m-327 -16 c13 -16 12 -17 -3 -4 -10 7 -18 15 -18 17 0 8 8 3 21 -13z m2129 -3
c-6 -11 -13 -20 -16 -20 -2 0 0 9 6 20 6 11 13 20 16 20 2 0 0 -9 -6 -20z
m-1825 -30 c10 -11 16 -20 13 -20 -3 0 -13 9 -23 20 -10 11 -16 20 -13 20 3 0
13 -9 23 -20z m1780 -47 c-137 -238 -383 -526 -600 -703 -221 -181 -541 -360
-790 -443 -155 -51 -446 -108 -542 -106 l-58 2 75 7 c393 39 745 167 1096 398
303 199 601 506 784 806 56 91 81 119 35 39z m-3200 -9 c-14 -41 -45 -67 -45
-38 0 14 46 74 56 74 1 0 -4 -16 -11 -36z m429 -9 l16 -40 -20 25 c-11 14 -20
34 -20 44 0 25 4 20 24 -29z m-717 -17 c-2 -13 -4 -5 -4 17 -1 22 1 32 4 23 2
-10 2 -28 0 -40z m828 24 c0 -18 -20 -15 -23 4 -3 10 1 15 10 12 7 -3 13 -10
13 -16z m395 -116 c0 -17 -24 -28 -45 -20 -29 12 -14 34 22 34 13 0 23 -6 23
-14z m863 -83 c-7 -2 -19 -2 -25 0 -7 3 -2 5 12 5 14 0 19 -2 13 -5z m-1769
-49 c21 -20 20 -26 -5 -58 -24 -30 -83 -37 -93 -10 -24 62 52 115 98 68z
m1223 -14 c7 -18 8 -32 2 -36 -12 -7 -99 43 -99 56 0 6 19 10 43 10 38 0 44
-3 54 -30z m3005 -36 c-5 -23 -2 -20 -30 -29 -22 -6 -23 -5 -17 17 13 40 54
51 47 12z m-3932 -109 c-7 -8 -19 -15 -26 -15 -20 0 -17 27 4 39 23 13 39 -3
22 -24z m4090 19 c0 -8 -4 -12 -10 -9 -5 3 -10 10 -10 16 0 5 5 9 10 9 6 0 10
-7 10 -16z m-5665 -54 c3 -5 1 -10 -4 -10 -6 0 -11 5 -11 10 0 6 2 10 4 10 3
0 8 -4 11 -10z m110 -50 c3 -5 -1 -10 -9 -10 -8 0 -18 5 -21 10 -3 6 1 10 9
10 8 0 18 -4 21 -10z m135 0 c0 -5 -2 -10 -4 -10 -3 0 -8 5 -11 10 -3 6 -1 10
4 10 6 0 11 -4 11 -10z m5230 -41 c0 -5 -9 -9 -20 -9 -19 0 -26 11 -14 23 8 8
34 -3 34 -14z m-5090 -99 c0 -5 -4 -10 -10 -10 -5 0 -10 5 -10 10 0 6 5 10 10
10 6 0 10 -4 10 -10z m5593 -155 c-3 -9 -8 -14 -10 -11 -3 3 -2 9 2 15 9 16
15 13 8 -4z m-173 -49 c0 -2 -8 -10 -17 -17 -16 -13 -17 -12 -4 4 13 16 21 21
21 13z m-571 -70 c-3 -3 -11 5 -18 17 -13 21 -12 21 5 5 10 -10 16 -20 13 -22z
m541 31 c0 -2 -10 -12 -22 -23 l-23 -19 19 23 c18 21 26 27 26 19z m-2840 -42
c-7 -8 -18 -15 -24 -15 -6 0 -2 7 8 15 25 19 32 19 16 0z m2764 -55 c-20 -27
-38 -50 -41 -50 -6 0 6 19 40 63 42 54 43 45 1 -13z m-237 -6 c-9 -9 -28 6
-21 18 4 6 10 6 17 -1 6 -6 8 -13 4 -17z m-2620 -50 c-3 -3 -12 -4 -19 -1 -8
3 -5 6 6 6 11 1 17 -2 13 -5z m2478 -24 c3 -5 -1 -10 -9 -10 -9 0 -16 5 -16
10 0 6 4 10 9 10 6 0 13 -4 16 -10z m135 -26 c0 -2 -12 -4 -26 -4 -14 0 -23 4
-20 9 6 8 46 4 46 -5z m-2935 -19 c-77 -14 -227 -28 -208 -19 17 8 201 32 243
32 22 0 9 -5 -35 -13z m-337 -22 c-10 -2 -26 -2 -35 0 -10 3 -2 5 17 5 19 0
27 -2 18 -5z m3188 -98 c-6 -5 -19 -19 -29 -30 -14 -16 -14 -13 3 20 11 22 20
46 21 55 1 8 4 4 8 -10 4 -14 3 -29 -3 -35z m94 52 c0 -2 -12 -14 -27 -28
l-28 -24 24 28 c23 25 31 32 31 24z m50 -1 c0 -2 -8 -10 -17 -17 -16 -13 -17
-12 -4 4 13 16 21 21 21 13z m-1060 -43 c0 -14 -34 -43 -52 -43 -26 0 -23 29
5 40 27 11 47 12 47 3z m-2095 -33 c-16 -4 -46 -8 -65 -7 l-35 0 40 7 c22 4
51 7 65 7 22 1 22 0 -5 -7z m3035 7 c0 -2 -15 -16 -32 -33 l-33 -29 29 33 c28
30 36 37 36 29z m-603 -44 c-9 -9 -19 -14 -23 -11 -10 10 6 28 24 28 15 0 15
-1 -1 -17z m405 -8 c6 -14 15 -25 20 -25 4 0 8 -4 8 -10 0 -20 -15 -9 -38 25
-12 19 -18 35 -12 35 6 0 16 -11 22 -25z m-482 -102 c-8 -3 -24 -10 -35 -15
-20 -9 -20 -9 -1 6 11 9 27 16 35 15 14 0 14 -1 1 -6z m46 -26 c-13 -38 -56
-100 -64 -93 -3 3 2 14 10 23 8 10 19 31 22 48 8 31 23 55 36 55 4 0 3 -15 -4
-33z m309 13 c-3 -5 -14 -10 -23 -9 -14 0 -13 2 3 9 27 11 27 11 20 0z m-90
-42 c7 -7 -5 -8 -35 -3 -65 10 -87 27 -25 19 28 -3 55 -11 60 -16z m-155 -3
c0 -8 -2 -15 -4 -15 -2 0 -6 7 -10 15 -3 8 -1 15 4 15 6 0 10 -7 10 -15z
m-320 -40 c-47 -24 -89 -44 -95 -44 -5 0 28 20 75 44 47 24 90 44 95 44 6 0
-28 -20 -75 -44z m1023 -10 c-3 -9 -8 -14 -10 -11 -3 3 -2 9 2 15 9 16 15 13
8 -4z m-476 -31 c-3 -3 -12 -4 -19 -1 -8 3 -5 6 6 6 11 1 17 -2 13 -5z m-767
-59 c-14 -8 -29 -14 -35 -14 -5 0 1 6 15 14 14 8 30 14 35 14 6 0 -1 -6 -15
-14z m600 5 c-8 -5 -19 -10 -25 -10 -5 0 -3 5 5 10 8 5 20 10 25 10 6 0 3 -5
-5 -10z m-423 -6 c-3 -3 -12 -4 -19 -1 -8 3 -5 6 6 6 11 1 17 -2 13 -5z m43
-19 c0 -8 -9 -19 -21 -25 -17 -10 -20 -9 -17 7 5 30 38 46 38 18z m-290 -10
c-14 -8 -29 -14 -35 -14 -5 0 1 6 15 14 14 8 30 14 35 14 6 0 -1 -6 -15 -14z
m150 6 c-8 -5 -26 -12 -40 -15 l-25 -7 25 15 c14 9 32 15 40 15 13 0 13 -1 0
-8z m-355 -10 c3 -5 1 -12 -5 -16 -5 -3 -10 1 -10 9 0 18 6 21 15 7z m285 -15
c0 -6 -121 -46 -134 -45 -6 0 18 11 54 24 68 25 80 28 80 21z m250 -36 c-8 -5
-19 -10 -25 -10 -5 0 -3 5 5 10 8 5 20 10 25 10 6 0 3 -5 -5 -10z m-147 -37
c-7 -2 -19 -2 -25 0 -7 3 -2 5 12 5 14 0 19 -2 13 -5z m-60 -10 c-7 -2 -19 -2
-25 0 -7 3 -2 5 12 5 14 0 19 -2 13 -5z m-65 -10 c-10 -2 -26 -2 -35 0 -10 3
-2 5 17 5 19 0 27 -2 18 -5z m579 -15 c-3 -8 -6 -5 -6 6 -1 11 2 17 5 13 3 -3
4 -12 1 -19z m-654 5 c-13 -2 -35 -2 -50 0 -16 2 -5 4 22 4 28 0 40 -2 28 -4z
m-60 -40 c-7 -2 -21 -2 -30 0 -10 3 -4 5 12 5 17 0 24 -2 18 -5z m70 0 c-7 -2
-21 -2 -30 0 -10 3 -4 5 12 5 17 0 24 -2 18 -5z m176 -19 c8 -7 -84 -2 -114 7
-19 5 -4 6 40 2 39 -3 72 -7 74 -9z m48 -10 c-3 -3 -12 -4 -19 -1 -8 3 -5 6 6
6 11 1 17 -2 13 -5z m273 -353 c0 -5 -10 -11 -22 -14 -22 -6 -22 -6 -4 8 23
17 26 18 26 6z m-4236 -185 c-1 -9 2 -16 7 -16 5 0 9 -5 9 -12 0 -6 -9 -3 -21
8 -13 12 -16 20 -9 22 9 3 9 7 -1 14 -11 8 -11 9 1 5 8 -2 14 -12 14 -21z
m2119 -23 c-7 -2 -19 -2 -25 0 -7 3 -2 5 12 5 14 0 19 -2 13 -5z m-46 -9 c-3
-3 -12 -4 -19 -1 -8 3 -5 6 6 6 11 1 17 -2 13 -5z m63 -15 c0 -5 5 -7 10 -4 6
3 10 -1 10 -9 0 -24 -18 -28 -29 -7 -14 25 -14 31 -1 31 6 0 10 -5 10 -11z
m-642 -46 c-10 -2 -26 -2 -35 0 -10 3 -2 5 17 5 19 0 27 -2 18 -5z m707 -13
c-3 -5 -14 -10 -23 -10 -15 0 -15 2 -2 10 20 13 33 13 25 0z m1705 -34 c0 -3
-4 -8 -10 -11 -5 -3 -10 -1 -10 4 0 6 5 11 10 11 6 0 10 -2 10 -4z"/>
<path d="M13357 14428 c-15 -12 -13 -15 20 -37 l36 -23 -6 23 c-4 13 -7 30 -7
37 0 6 -6 12 -13 12 -7 0 -21 -6 -30 -12z"/>
<path d="M13414 14424 c3 -9 6 -27 6 -40 0 -14 4 -23 9 -20 14 9 19 54 8 65
-16 16 -30 13 -23 -5z"/>
<path d="M13765 14230 c3 -5 8 -10 11 -10 2 0 4 5 4 10 0 6 -5 10 -11 10 -5 0
-7 -4 -4 -10z"/>
<path d="M13016 14210 c-21 -11 -44 -24 -50 -30 -7 -5 -17 -7 -22 -3 -5 4 -4
2 2 -5 9 -11 19 -8 49 12 21 14 44 26 51 26 7 0 16 5 19 10 9 15 -5 12 -49
-10z"/>
<path d="M12917 14145 c-11 -10 -17 -11 -19 -3 -2 6 -14 -6 -26 -26 l-22 -38
27 20 c31 22 70 62 60 62 -3 0 -12 -7 -20 -15z"/>
<path d="M12166 13965 c-9 -45 -1 -58 25 -44 12 6 18 13 15 16 -3 3 -12 0 -21
-7 -9 -8 -15 -8 -15 -2 0 11 30 24 46 21 26 -4 24 4 -6 26 -19 14 -35 25 -36
25 -1 0 -5 -16 -8 -35z"/>
<path d="M11751 13882 c-14 -31 -56 -122 -94 -201 -51 -105 -70 -155 -71 -190
-2 -47 16 -101 29 -82 3 6 3 16 0 21 -4 6 -2 9 3 8 15 -5 72 50 73 70 0 10 3
12 6 4 11 -29 23 3 18 51 -6 58 0 54 10 -7 5 -29 9 -36 16 -25 5 8 6 23 3 34
-6 19 -5 19 8 2 13 -18 16 -16 41 20 48 69 62 154 30 179 -17 13 -17 15 1 29
19 14 19 16 -7 69 -15 30 -27 60 -27 65 0 26 -17 6 -39 -47z m-10 -157 c-35
-41 -34 -36 -21 -69 5 -14 7 -26 4 -26 -2 0 -9 10 -13 23 -9 22 -9 22 -20 -5
-6 -16 -15 -28 -21 -28 -16 0 -12 15 10 35 13 11 20 31 20 53 0 28 3 32 13 23
11 -8 18 -6 32 9 10 11 20 20 23 20 2 0 -10 -16 -27 -35z"/>
<path d="M11844 13786 c-7 -18 14 -59 27 -51 5 4 9 -1 9 -10 0 -9 5 -13 10
-10 6 3 10 15 10 26 0 19 -10 24 -39 19 -12 -1 -13 1 -2 13 8 10 9 17 1 22 -5
3 -13 0 -16 -9z"/>
<path d="M11920 13775 c-11 -13 -10 -14 4 -9 9 3 16 10 16 15 0 13 -6 11 -20
-6z"/>
<path d="M11870 13689 c0 -5 5 -7 10 -4 6 3 10 8 10 11 0 2 -4 4 -10 4 -5 0
-10 -5 -10 -11z"/>
<path d="M12300 13661 c-8 -6 -17 -8 -20 -6 -4 2 -7 -2 -7 -10 0 -11 5 -10 24
2 13 8 23 17 23 19 0 6 -3 5 -20 -5z"/>
<path d="M5140 13590 c20 -13 33 -13 25 0 -3 6 -14 10 -23 10 -15 0 -15 -2 -2
-10z"/>
<path d="M12344 13480 c22 -11 41 -18 44 -16 5 6 -54 36 -70 36 -7 -1 5 -10
26 -20z"/>
<path d="M11556 13475 c-9 -26 -7 -32 5 -12 6 10 9 21 6 23 -2 3 -7 -2 -11
-11z"/>
<path d="M8914 13466 c1 -8 5 -18 8 -22 4 -3 4 -12 1 -20 -4 -12 -1 -13 21 -3
27 13 26 24 -2 24 -9 0 -17 5 -17 12 0 6 -3 14 -7 18 -3 4 -5 0 -4 -9z"/>
<path d="M12083 13467 c-13 -21 -12 -37 3 -37 21 0 37 37 19 44 -8 3 -18 0
-22 -7z"/>
<path d="M8875 13450 c4 -6 11 -8 16 -5 14 9 11 15 -7 15 -8 0 -12 -5 -9 -10z"/>
<path d="M8865 13420 c-3 -5 -1 -10 4 -10 6 0 11 5 11 10 0 6 -2 10 -4 10 -3
0 -8 -4 -11 -10z"/>
<path d="M11571 13414 c0 -11 3 -14 6 -6 3 7 2 16 -1 19 -3 4 -6 -2 -5 -13z"/>
<path d="M12065 13400 c-3 -5 -2 -10 4 -10 5 0 13 5 16 10 3 6 2 10 -4 10 -5
0 -13 -4 -16 -10z"/>
<path d="M11830 13219 c0 -5 5 -7 10 -4 6 3 10 8 10 11 0 2 -4 4 -10 4 -5 0
-10 -5 -10 -11z"/>
<path d="M11810 13203 c0 -6 -8 -13 -18 -15 -11 -3 -18 -16 -20 -38 -2 -28 0
-31 13 -20 8 7 12 17 8 23 -3 5 -1 7 4 4 10 -6 26 43 17 52 -2 2 -4 0 -4 -6z"/>
<path d="M11837 13193 c-4 -3 -7 -11 -7 -17 0 -6 5 -5 12 2 6 6 9 14 7 17 -3
3 -9 2 -12 -2z"/>
<path d="M11824 13114 c4 -13 2 -25 -3 -29 -5 -3 -11 7 -13 22 l-3 27 -29 -29
c-22 -23 -29 -41 -31 -79 -2 -38 -9 -53 -30 -72 -15 -13 -25 -29 -22 -37 3 -7
-4 -19 -15 -26 -11 -7 -17 -15 -14 -18 10 -11 45 28 39 44 -4 9 -1 13 8 11 20
-4 109 62 109 81 0 14 -2 14 -10 1 -8 -11 -9 -7 -4 15 8 35 14 45 14 22 0 -9
6 -14 13 -12 6 3 13 27 15 53 2 39 0 49 -13 49 -12 0 -15 -6 -11 -23z"/>
<path d="M11841 13014 c0 -11 3 -14 6 -6 3 7 2 16 -1 19 -3 4 -6 -2 -5 -13z"/>
<path d="M11829 12988 c-5 -17 -3 -68 3 -68 4 0 8 6 8 13 0 6 3 22 6 35 4 13
2 22 -5 22 -6 0 -11 -1 -12 -2z"/>
<path d="M11770 12942 l-34 -29 33 -5 c35 -5 45 5 39 42 -3 20 -4 20 -38 -8z"/>
<path d="M11750 12892 c0 -4 -9 -13 -21 -20 -13 -9 -18 -9 -14 -2 5 8 1 8 -13
-1 -11 -7 -24 -28 -30 -46 -10 -32 -9 -33 11 -27 59 18 65 23 60 43 -4 16 -1
21 14 21 12 0 19 8 20 20 1 11 -4 20 -13 20 -8 0 -14 -3 -14 -8z"/>
<path d="M11760 12839 c0 -5 5 -7 10 -4 6 3 10 8 10 11 0 2 -4 4 -10 4 -5 0
-10 -5 -10 -11z"/>
<path d="M11685 12780 c-12 -5 -14 -9 -6 -9 12 -1 11 -4 -3 -14 -11 -8 -20
-36 -26 -77 -12 -82 -36 -170 -49 -183 -6 -6 -11 -25 -11 -41 0 -22 3 -27 9
-17 5 7 14 11 20 7 6 -4 16 7 24 26 8 18 24 53 35 78 12 25 30 68 41 95 11 28
20 43 20 35 1 -27 -30 -185 -41 -204 -5 -10 -11 -31 -13 -47 -2 -15 -13 -47
-23 -71 -27 -59 -35 -88 -25 -88 14 0 45 60 39 76 -3 7 -1 14 4 14 14 0 67
121 95 219 18 63 25 108 23 148 -3 58 -3 59 -30 55 -16 -3 -28 -11 -28 -19 0
-8 -5 -11 -11 -8 -6 4 -8 13 -5 21 6 16 -9 17 -39 4z m62 -72 c-3 -8 -6 -5 -6
6 -1 11 2 17 5 13 3 -3 4 -12 1 -19z"/>
<path d="M11576 12405 c-3 -8 -1 -15 3 -15 5 0 11 7 15 15 3 8 1 15 -3 15 -5
0 -11 -7 -15 -15z"/>
<path d="M11565 12328 l-16 -33 20 25 c20 24 26 40 16 40 -2 0 -12 -15 -20
-32z"/>
<path d="M8821 11981 c-21 -40 -71 -164 -71 -176 0 -14 41 -2 46 13 4 9 17 47
31 83 14 36 23 78 21 95 l-3 29 -24 -44z"/>
<path d="M8780 11793 c-30 -6 -51 -23 -28 -23 9 0 31 7 49 15 34 14 27 16 -21
8z"/>
<path d="M8935 11779 c-11 -17 1 -21 15 -4 8 9 8 15 2 15 -6 0 -14 -5 -17 -11z"/>
<path d="M8737 11743 c-3 -5 -8 -30 -12 -57 -5 -38 -4 -47 7 -43 7 2 21 -2 30
-10 15 -13 18 -12 34 11 18 28 12 48 -8 28 -25 -25 -28 -10 -4 19 22 26 24 32
12 45 -15 15 -52 19 -59 7z"/>
<path d="M8905 11730 c-10 -11 -13 -20 -8 -20 13 0 38 29 31 35 -3 3 -13 -4
-23 -15z"/>
<path d="M8896 11658 c3 -5 10 -6 15 -3 13 9 11 12 -6 12 -8 0 -12 -4 -9 -9z"/>
<path d="M8919 11633 c-13 -16 -12 -17 4 -4 16 13 21 21 13 21 -2 0 -10 -8
-17 -17z"/>
<path d="M8724 11622 c-11 -7 -36 -103 -29 -110 2 -2 20 8 40 24 26 20 33 29
23 35 -10 6 -10 11 -1 20 9 9 9 15 -2 25 -16 16 -16 16 -31 6z"/>
<path d="M8722 11512 c-28 -23 -32 -33 -32 -72 0 -41 2 -43 13 -24 6 12 18 32
26 45 14 23 13 23 -5 9 -10 -8 -4 2 14 21 50 54 40 68 -16 21z"/>
<path d="M8418 11163 c-10 -2 -18 -9 -18 -14 0 -5 -10 -9 -22 -10 l-23 0 21
-11 c17 -8 28 -6 48 7 14 10 26 21 26 26 0 9 -4 10 -32 2z"/>
<path d="M8440 11125 c-7 -9 -8 -15 -2 -15 5 0 12 7 16 15 3 8 4 15 2 15 -2 0
-9 -7 -16 -15z"/>
<path d="M8258 11123 c7 -3 16 -2 19 1 4 3 -2 6 -13 5 -11 0 -14 -3 -6 -6z"/>
<path d="M8298 11113 c7 -3 16 -2 19 1 4 3 -2 6 -13 5 -11 0 -14 -3 -6 -6z"/>
<path d="M8330 11090 c0 -5 5 -10 11 -10 5 0 7 5 4 10 -3 6 -8 10 -11 10 -2 0
-4 -4 -4 -10z"/>
<path d="M10754 11093 c11 -12 126 -15 126 -3 0 6 -28 10 -67 10 -36 0 -63 -3
-59 -7z"/>
<path d="M8400 11060 c-18 -12 -2 -12 25 0 13 6 15 9 5 9 -8 0 -22 -4 -30 -9z"/>
<path d="M8856 11062 c-3 -5 -3 -17 0 -26 3 -9 1 -16 -5 -16 -7 0 -16 10 -21
23 -8 20 -9 18 -10 -13 -1 -31 -2 -32 -10 -13 -13 32 -35 20 -55 -30 -11 -27
-19 -37 -24 -28 -9 14 -30 -7 -47 -48 -11 -27 1 -91 17 -91 5 0 26 24 48 54
23 31 50 56 65 60 25 6 86 77 86 99 0 6 -3 7 -7 3 -4 -3 -12 3 -19 15 -6 13
-14 17 -18 11z"/>
<path d="M8257 10973 c-45 -42 -84 -79 -87 -81 -3 -3 6 1 20 9 14 7 32 14 40
15 8 2 20 10 26 18 6 9 13 15 15 13 2 -1 25 19 51 45 37 35 44 47 32 52 -10 4
-43 -20 -97 -71z"/>
<path d="M10757 11030 c3 -11 7 -20 9 -20 2 0 4 9 4 20 0 11 -4 20 -9 20 -5 0
-7 -9 -4 -20z"/>
<path d="M10791 11034 c0 -11 3 -14 6 -6 3 7 2 16 -1 19 -3 4 -6 -2 -5 -13z"/>
<path d="M8936 11013 c-6 -14 -5 -15 5 -6 7 7 10 15 7 18 -3 3 -9 -2 -12 -12z"/>
<path d="M10845 11012 c-13 -13 -3 -23 22 -20 34 4 42 26 9 26 -14 0 -28 -3
-31 -6z"/>
<path d="M10810 11000 c0 -5 5 -10 10 -10 6 0 10 5 10 10 0 6 -4 10 -10 10 -5
0 -10 -4 -10 -10z"/>
<path d="M8991 10982 c-1 -13 5 -30 13 -37 12 -12 18 -11 40 9 21 20 23 26 11
36 -11 9 -18 7 -32 -10 l-18 -21 -7 23 -6 23 -1 -23z"/>
<path d="M8877 10970 c-9 -13 -30 -31 -46 -40 -16 -8 -52 -40 -80 -72 l-51
-56 20 -54 c46 -116 43 -117 120 28 67 130 89 184 71 184 -5 0 -11 8 -13 18
-3 14 -6 13 -21 -8z m-33 -109 c-4 -17 -9 -30 -11 -27 -3 2 -2 19 2 36 9 41
17 33 9 -9z"/>
<path d="M9094 10953 c2 -10 11 -19 22 -20 16 -2 16 -1 1 3 -9 3 -15 9 -12 14
3 5 1 11 -4 14 -5 4 -8 -2 -7 -11z"/>
<path d="M8065 10870 c3 -5 8 -10 11 -10 2 0 4 5 4 10 0 6 -5 10 -11 10 -5 0
-7 -4 -4 -10z"/>
<path d="M9330 10845 c0 -5 5 -17 10 -25 5 -8 10 -10 10 -5 0 6 -5 17 -10 25
-5 8 -10 11 -10 5z"/>
<path d="M8085 10800 c-21 -23 -4 -27 19 -4 18 17 20 24 8 24 -5 0 -17 -9 -27
-20z"/>
<path d="M9357 10769 c6 -23 9 -24 16 -5 3 8 0 17 -7 19 -10 4 -12 -1 -9 -14z"/>
<path d="M9422 10751 c-11 -7 -11 -9 2 -14 10 -4 16 -1 16 8 0 17 -1 17 -18 6z"/>
<path d="M7814 10675 c11 -8 22 -12 25 -9 6 6 -19 24 -34 24 -5 -1 -1 -7 9
-15z"/>
<path d="M6877 10444 l-18 -36 33 -32 c18 -17 67 -60 108 -96 41 -36 81 -71
88 -77 16 -15 42 -17 42 -4 0 5 8 7 18 5 9 -3 26 2 37 10 19 14 19 15 1 35
-11 12 -25 21 -33 21 -7 0 -13 4 -13 10 0 5 -26 28 -57 51 -31 23 -85 66 -120
96 -34 29 -64 53 -65 53 -2 0 -11 -17 -21 -36z m177 -145 c33 -29 61 -60 61
-69 2 -28 -28 -13 -76 38 l-44 45 48 -38 c26 -20 47 -33 47 -27 0 16 -141 132
-159 132 -12 0 -13 2 -3 8 10 7 8 15 -9 38 -12 16 1 6 27 -22 27 -29 76 -76
108 -105z"/>
<path d="M7565 10449 c-4 -6 -5 -13 -2 -16 7 -7 27 6 27 18 0 12 -17 12 -25
-2z"/>
<path d="M6822 10372 c4 -15 0 -25 -10 -32 -12 -7 -13 -12 -6 -17 6 -5 46 -35
89 -68 49 -38 80 -55 82 -47 3 6 9 12 15 12 7 0 7 -4 -1 -13 -8 -10 -7 -17 1
-25 12 -12 59 13 57 32 -2 22 -140 136 -165 136 -14 0 -22 -4 -19 -10 3 -5 -1
-10 -10 -10 -9 0 -14 4 -10 9 3 5 1 12 -5 16 -6 4 -8 10 -5 15 3 5 0 12 -6 16
-9 5 -10 0 -7 -14z"/>
<path d="M7823 10324 c4 -7 0 -15 -9 -18 -8 -3 -12 -11 -8 -18 5 -7 1 -9 -13
-6 -30 8 -59 -21 -79 -82 -18 -51 -22 -55 -52 -57 -31 -1 -82 -35 -82 -54 0
-4 13 -10 29 -14 32 -7 68 10 74 35 2 8 4 0 4 -18 0 -18 -3 -28 -7 -22 -5 8
-12 7 -23 -4 -8 -9 -19 -16 -23 -16 -4 0 -16 -8 -27 -17 -19 -17 -20 -17 -9 3
10 19 9 23 -15 29 -22 5 -32 2 -46 -16 -9 -12 -15 -24 -12 -28 3 -3 10 1 15 9
8 13 10 13 10 1 0 -8 -7 -23 -16 -33 -16 -16 -15 -18 2 -25 11 -5 19 -14 19
-20 0 -7 54 -58 120 -113 84 -70 125 -98 137 -94 17 5 24 -6 12 -19 -8 -8 -56
17 -73 37 -8 9 -18 16 -24 16 -5 0 -2 -9 8 -20 22 -25 154 -115 159 -109 2 2
6 16 10 32 4 18 2 27 -6 29 -7 0 -17 2 -23 3 -5 2 -16 3 -22 4 -27 2 -11 21
17 21 29 0 30 2 31 48 l2 47 9 -50 c5 -27 8 -71 8 -96 l-1 -46 53 -23 c66 -28
157 -60 173 -60 7 0 54 61 104 136 71 105 90 139 79 145 -7 5 -57 23 -110 41
-54 18 -96 34 -94 36 2 2 43 -9 90 -24 48 -14 90 -24 93 -20 8 8 -222 233
-357 349 -110 96 -136 116 -127 101z m-26 -190 c-3 -3 -12 -4 -19 -1 -8 3 -5
6 6 6 11 1 17 -2 13 -5z m166 -39 c1 -5 -6 -11 -15 -13 -11 -2 -18 3 -18 13 0
17 30 18 33 0z m-218 -66 c14 -6 9 -7 -15 -3 -19 4 -44 11 -55 15 -14 6 -9 7
15 3 19 -4 44 -11 55 -15z m215 -3 c0 -2 -7 -7 -16 -10 -8 -3 -12 -2 -9 4 6
10 25 14 25 6z m-370 -20 c0 -2 -8 -10 -17 -17 -16 -13 -17 -12 -4 4 13 16 21
21 21 13z m517 -82 c-3 -3 -12 -4 -19 -1 -8 3 -5 6 6 6 11 1 17 -2 13 -5z
m-347 -24 c0 -5 -4 -10 -9 -10 -6 0 -13 5 -16 10 -3 6 1 10 9 10 9 0 16 -4 16
-10z m-43 -55 c0 -8 -4 -15 -9 -15 -4 0 -8 7 -8 15 0 8 4 15 8 15 5 0 9 -7 9
-15z m260 -141 c-3 -3 -12 -4 -19 -1 -8 3 -5 6 6 6 11 1 17 -2 13 -5z"/>
<path d="M7187 10203 c-10 -2 -16 -10 -14 -16 4 -15 76 -39 94 -33 20 8 15 26
-7 26 -11 0 -19 6 -17 12 2 13 -27 19 -56 11z"/>
<path d="M7670 10190 c-23 -17 -23 -19 -6 -26 18 -7 36 9 36 34 0 15 0 15 -30
-8z"/>
<path d="M7035 10178 l-20 -20 23 6 c22 7 33 -9 11 -16 -11 -4 79 -68 95 -68
4 0 4 9 1 20 -3 11 -2 20 3 20 13 0 23 -27 16 -44 -3 -8 3 -19 15 -25 17 -10
20 -9 15 4 -4 10 0 15 10 15 24 0 19 14 -12 32 -32 19 -70 58 -56 58 5 0 20
-7 32 -16 24 -17 36 -16 24 1 -10 15 -59 35 -66 28 -3 -4 -18 -8 -33 -9 -19
-2 -23 0 -14 5 15 10 7 31 -12 30 -7 0 -21 -9 -32 -21z"/>
<path d="M7395 10175 c-22 -13 -37 -25 -34 -25 13 0 78 30 84 40 10 17 -8 11
-50 -15z"/>
<path d="M7266 10145 c-29 -12 -29 -13 -8 -24 12 -6 22 -8 22 -2 0 5 7 11 14
14 10 4 13 1 9 -9 -6 -15 5 -18 23 -6 8 5 5 12 -10 23 -17 13 -26 14 -50 4z"/>
<path d="M6984 10129 c-10 -11 -14 -20 -9 -19 22 5 45 -1 45 -10 0 -5 -7 -7
-15 -4 -30 12 -14 -5 36 -36 50 -33 50 -33 70 -13 20 20 20 20 -18 45 -98 64
-88 60 -109 37z m97 -55 l34 -15 -35 6 c-19 3 -39 10 -44 15 -15 15 7 12 45
-6z"/>
<path d="M7230 10112 c0 -6 9 -12 20 -15 11 -3 20 -3 20 -1 0 2 -9 8 -20 14
-11 6 -20 7 -20 2z"/>
<path d="M7127 10035 c-21 -15 -12 -23 20 -21 32 3 38 13 16 24 -13 7 -24 6
-36 -3z"/>
<path d="M7499 9952 c14 -9 65 -52 114 -94 50 -43 95 -78 101 -78 11 1 -3 15
-113 110 -85 74 -94 79 -111 79 -10 0 -6 -6 9 -17z"/>
<path d="M7477 9940 c9 -10 7 -17 -10 -31 -22 -18 -22 -18 -2 -33 34 -27 64
-30 81 -10 10 14 14 15 12 4 -2 -8 -6 -17 -9 -20 -4 -3 6 -17 22 -31 16 -15
32 -23 35 -18 3 5 13 1 22 -10 17 -20 132 -87 132 -77 0 7 -214 184 -260 215
-19 14 -30 18 -23 11z"/>
<path d="M8300 9911 c0 -6 4 -13 10 -16 6 -3 7 1 4 9 -7 18 -14 21 -14 7z"/>
<path d="M7704 9712 c12 -19 209 -164 268 -196 l53 -30 -72 72 c-40 39 -82 76
-94 82 -35 19 -13 -6 36 -41 25 -18 45 -37 45 -42 0 -5 -38 21 -84 57 -89 70
-165 118 -152 98z"/>
<path d="M7960 9575 c22 -30 110 -109 110 -98 0 4 -28 33 -62 63 -35 30 -56
46 -48 35z"/>
<path d="M8042 9527 c45 -44 55 -50 66 -38 22 26 13 37 -53 64 l-66 25 53 -51z"/>
<path d="M12990 8739 c-7 -11 -10 -23 -7 -25 2 -2 9 7 15 21 14 30 7 33 -8 4z"/>
<path d="M12626 8705 c-9 -13 -26 -33 -38 -45 -16 -14 -18 -20 -7 -21 11 0 10
-2 -2 -7 -27 -11 -339 -305 -333 -314 3 -4 -1 -5 -8 -3 -8 3 -34 -11 -58 -32
l-44 -38 30 -6 c28 -6 27 -7 -8 -8 -32 -1 -52 -13 -123 -73 l-85 -73 48 -22
c50 -24 77 -29 67 -14 -3 6 3 8 14 6 13 -2 40 16 81 53 58 52 61 57 44 69 -16
12 -15 13 12 7 22 -4 34 -1 48 15 19 21 19 21 -3 21 -12 0 -19 4 -16 10 3 6
19 10 35 10 36 0 42 9 30 49 -5 19 -5 31 1 31 5 0 9 -11 9 -25 0 -14 4 -25 9
-25 11 0 293 290 339 348 28 35 31 42 15 42 -13 0 -15 2 -5 9 10 6 11 13 1 34
-15 34 -32 34 -53 2z m-529 -627 c-3 -8 -6 -5 -6 6 -1 11 2 17 5 13 3 -3 4
-12 1 -19z"/>
<path d="M11270 8350 c0 -7 8 -9 22 -4 20 6 21 5 10 -8 -14 -17 -8 -39 20 -80
11 -16 17 -28 14 -28 -3 0 -18 18 -33 41 -23 35 -28 38 -34 23 -4 -11 -9 -41
-10 -69 l-2 -50 -6 55 -6 55 -64 -160 c-34 -88 -83 -211 -108 -273 -25 -62
-44 -115 -41 -117 7 -8 192 94 201 110 4 9 12 13 17 10 10 -6 220 131 220 145
0 5 -19 40 -43 77 -68 108 -89 143 -84 143 3 0 33 -46 68 -101 35 -56 69 -103
75 -106 6 -2 25 4 41 14 60 37 193 136 193 144 0 19 -310 160 -357 162 -17 1
-31 7 -30 12 1 6 -13 11 -30 13 -20 2 -33 -1 -33 -8z m-12 -340 c-2 -38 -5
-65 -7 -59 -2 7 -7 6 -13 -2 -7 -10 -8 -9 -3 6 4 11 9 44 12 73 8 74 14 65 11
-18z m-11 -117 c-3 -10 -5 -4 -5 12 0 17 2 24 5 18 2 -7 2 -21 0 -30z"/>
<path d="M11831 8238 l-72 -62 86 -44 87 -43 70 58 c38 32 77 64 86 70 8 7 14
14 11 17 -2 2 -42 16 -89 31 -47 15 -90 30 -96 32 -6 2 -44 -24 -83 -59z"/>
<path d="M11646 8085 c-150 -112 -142 -98 -97 -178 l38 -68 89 59 c49 33 124
87 167 120 l78 61 -80 41 c-44 22 -84 40 -88 40 -5 0 -53 -34 -107 -75z"/>
<path d="M11850 8009 c-41 -34 -116 -89 -166 -122 l-92 -61 25 -38 26 -38 76
68 c83 75 188 158 236 187 45 28 21 6 -95 -82 -192 -148 -189 -163 8 -31 100
67 182 125 182 128 0 9 -89 50 -108 50 -9 -1 -51 -28 -92 -61z"/>
<path d="M11435 7927 c-27 -22 -50 -45 -50 -51 -1 -6 -7 -10 -14 -8 -7 1 -10
-2 -6 -8 4 -6 16 -3 33 8 25 16 26 16 19 -1 -5 -15 -4 -16 13 -7 26 14 29 13
27 -12 -2 -25 -43 -72 -85 -100 -50 -33 -7 -18 93 33 55 28 101 52 103 53 3 4
-68 125 -77 130 -3 2 -28 -15 -56 -37z"/>
<path d="M11540 7799 c-30 -15 -32 -18 -12 -19 30 0 28 -20 -3 -20 -14 0 -25
-4 -25 -8 0 -5 -6 -9 -12 -9 -7 0 -22 -4 -33 -9 -18 -7 -18 -6 -6 9 10 12 -4
9 -50 -12 -35 -15 -81 -34 -102 -41 -22 -7 -35 -16 -30 -20 8 -9 50 -1 249 46
l112 26 -20 34 c-26 45 -27 45 -68 23z"/>
<path d="M7810 7740 c8 -5 20 -10 25 -10 6 0 3 5 -5 10 -8 5 -19 10 -25 10 -5
0 -3 -5 5 -10z"/>
<path d="M11235 7660 c-3 -5 1 -10 10 -10 9 0 13 5 10 10 -3 6 -8 10 -10 10
-2 0 -7 -4 -10 -10z"/>
<path d="M11800 7610 c0 -5 5 -10 10 -10 6 0 10 5 10 10 0 6 -4 10 -10 10 -5
0 -10 -4 -10 -10z"/>
<path d="M10247 6383 c-2 -2 -82 -5 -178 -7 -96 -2 -175 -4 -177 -5 -1 -1 2
-10 8 -22 8 -14 20 -20 38 -19 15 1 29 1 32 0 3 -1 55 -4 115 -6 61 -2 131 -5
158 -6 26 -2 47 0 47 5 0 4 5 7 11 7 5 0 8 -4 5 -8 -2 -4 16 -7 42 -5 26 1
127 4 226 7 136 3 181 7 187 17 5 8 9 9 9 3 0 -11 125 -12 137 -1 3 4 1 7 -6
7 -7 0 -10 4 -7 9 10 15 -43 19 -55 5 -14 -17 -43 -19 -33 -2 4 7 3 8 -4 4 -7
-4 -17 -4 -24 0 -7 5 -118 9 -248 11 -129 2 -245 5 -257 7 -13 2 -24 1 -26 -1z
m628 -34 c-3 -4 -12 -6 -20 -3 -8 4 -13 10 -10 15 3 4 12 6 20 3 8 -4 13 -10
10 -15z"/>
<path d="M7506 5124 c-91 -17 -242 -77 -318 -128 -168 -111 -296 -312 -333
-521 -19 -111 -19 -179 0 -290 64 -367 374 -631 766 -652 362 -20 669 151 809
452 146 312 84 690 -150 925 -73 72 -166 134 -184 122 -15 -9 -186 -10 -181
-1 3 3 -7 7 -21 7 -15 0 -30 5 -34 12 -4 7 -15 10 -23 7 -8 -3 -19 -1 -24 4
-5 5 -21 10 -35 11 -15 1 -24 6 -22 10 3 4 -4 8 -15 8 -15 0 -19 5 -14 16 5
14 2 16 -20 10 -15 -3 -27 -2 -27 3 0 6 26 12 58 14 31 2 10 4 -48 4 -58 1
-140 -5 -184 -13z m114 2 c0 -11 -19 -15 -25 -6 -3 5 1 10 9 10 9 0 16 -2 16
-4z m47 -2 c-3 -3 -12 -4 -19 -1 -8 3 -5 6 6 6 11 1 17 -2 13 -5z m143 -255
c133 -30 279 -147 338 -269 59 -122 78 -264 51 -392 -39 -188 -179 -337 -371
-393 -66 -19 -210 -22 -283 -5 -233 53 -405 276 -405 525 1 244 144 450 364
521 79 26 225 32 306 13z"/>
<path d="M4926 5035 c19 -46 69 -169 113 -272 286 -682 405 -964 452 -1080
l53 -133 152 0 152 0 37 93 c153 382 564 1358 610 1448 l16 30 -157 -3 -157
-3 -54 -130 c-117 -278 -423 -1036 -423 -1045 0 -34 -25 14 -97 188 -146 350
-308 744 -359 869 l-49 123 -162 0 -161 0 34 -85z"/>
<path d="M13053 5104 c-3 -8 -12 -13 -21 -9 -8 3 -20 1 -27 -5 -14 -12 -163
-34 -217 -33 -21 1 -38 -3 -38 -7 0 -7 -40 -12 -100 -10 -14 0 -30 7 -36 15
-20 27 -24 -92 -24 -801 l0 -694 605 0 605 0 0 130 0 130 -460 0 -460 0 0 200
0 200 406 0 407 0 -7 92 c-3 50 -6 106 -6 125 l0 33 -400 0 -400 0 0 198 0
197 455 -1 455 0 0 128 0 128 -365 0 c-322 0 -366 -2 -372 -16z m27 2 c0 -3
-4 -8 -10 -11 -5 -3 -10 -1 -10 4 0 6 5 11 10 11 6 0 10 -2 10 -4z"/>
<path d="M14226 5108 c16 -28 363 -520 452 -641 35 -48 62 -93 59 -100 -5 -15
-288 -419 -450 -644 l-117 -163 170 0 169 0 24 33 c14 17 106 150 205 294
l179 261 150 -216 c82 -119 174 -252 204 -294 l54 -78 168 0 c92 0 167 2 167
5 0 2 -44 66 -98 142 -53 76 -158 226 -232 333 -74 107 -157 228 -186 269
l-51 74 97 131 c53 72 157 217 230 321 73 105 148 211 167 238 l35 47 -165 0
-165 0 -113 -162 c-232 -335 -252 -361 -263 -345 -6 8 -87 126 -181 261 l-170
245 -173 1 c-136 0 -172 -3 -166 -12z"/>
<path d="M9081 4313 l-1 -753 145 0 145 0 2 238 3 237 200 0 199 0 143 -230
c79 -126 147 -234 151 -240 4 -6 68 -8 174 -5 l167 5 -106 165 c-58 91 -127
199 -152 240 -26 41 -55 87 -65 102 l-17 26 53 27 c163 82 261 246 262 440 1
82 -13 190 -21 168 -3 -7 -13 -13 -24 -13 -10 0 -19 -4 -19 -9 0 -5 -17 -3
-38 4 -21 8 -56 16 -78 19 -70 11 -81 14 -123 35 -22 12 -41 18 -41 15 0 -4
-10 1 -22 12 -11 10 -5 -2 15 -28 46 -62 61 -108 61 -193 -1 -85 -25 -146 -79
-198 -66 -64 -98 -70 -387 -75 l-258 -3 0 280 0 281 168 1 c92 1 201 1 242 1
l75 -1 -65 10 c-36 5 -72 12 -80 16 -8 3 -23 8 -33 10 -10 2 -28 8 -40 15 -22
12 -38 16 -87 21 -14 2 -31 7 -38 11 -7 4 -31 9 -53 11 -113 12 -195 26 -346
60 -12 3 -23 15 -26 28 -2 12 -5 -317 -6 -730z"/>
<path d="M12088 5024 c-4 -3 -32 -8 -65 -10 -74 -6 -167 -19 -346 -49 -54 -9
-133 -18 -175 -20 -43 -2 -77 -4 -77 -5 0 -1 -9 -3 -20 -5 -11 -2 -36 -7 -55
-11 -47 -10 -72 -12 -155 -17 -38 -3 -88 -10 -110 -16 -58 -15 -272 -15 -278
2 -3 7 -6 5 -6 -5 -1 -16 19 -18 246 -20 l246 -3 -2 -652 -3 -653 151 0 151 0
0 653 -1 652 256 0 255 0 0 83 c0 81 -1 88 -12 76z"/>
<path d="M8250 2758 c-15 -38 -139 -321 -211 -483 -27 -60 -49 -113 -49 -117
0 -5 27 -8 59 -8 l59 0 28 70 27 70 159 -2 159 -3 27 -65 28 -65 62 -3 c34 -2
62 -1 62 1 0 2 -41 96 -91 208 -51 112 -113 254 -140 314 l-49 110 -58 3 c-59
3 -59 3 -72 -30z m130 -241 c28 -66 49 -121 47 -123 -2 -3 -52 -3 -110 -2
l-106 3 48 111 c50 116 61 137 66 132 2 -2 26 -56 55 -121z"/>
<path d="M9955 2773 c-128 -46 -206 -159 -208 -303 -1 -91 24 -159 84 -224 69
-76 129 -101 244 -101 78 0 97 4 145 28 30 15 66 36 79 48 l24 20 -38 39 c-36
37 -40 39 -59 25 -77 -57 -169 -70 -243 -34 -109 53 -152 181 -99 294 28 60
46 77 111 106 66 29 139 22 208 -21 l50 -31 36 36 36 36 -30 25 c-60 49 -115
68 -205 71 -63 3 -98 -1 -135 -14z"/>
<path d="M8900 2513 c0 -148 3 -289 6 -315 l7 -48 53 0 54 0 0 315 0 315 -60
0 -59 0 -1 -267z"/>
<path d="M10596 2467 l2 -312 56 -3 56 -3 0 131 0 130 155 0 155 0 0 -130 0
-130 60 0 61 0 -1 315 -2 315 -59 0 -59 0 0 -130 0 -130 -155 0 -155 0 0 130
0 130 -57 0 -58 0 1 -313z"/>
<path d="M11660 2758 c-37 -88 -129 -299 -189 -436 -39 -89 -71 -165 -71 -167
0 -3 27 -5 59 -5 l59 0 28 70 27 70 161 -2 161 -3 25 -67 25 -68 63 0 c34 0
62 2 62 4 0 3 -54 125 -121 273 -66 147 -128 287 -137 311 l-16 42 -63 0 c-56
0 -65 -3 -73 -22z m129 -238 c28 -63 51 -118 51 -122 0 -5 -49 -8 -110 -8 -60
0 -110 4 -110 9 0 13 110 244 114 240 2 -2 27 -56 55 -119z"/>
<path d="M12200 2730 l0 -50 100 0 100 0 0 -265 0 -265 60 0 60 0 0 265 0 265
95 0 95 0 0 50 0 50 -255 0 -255 0 0 -50z"/>
</g>
</svg>
